<?xml version="1.0" encoding="UTF-8" standalone="no"?><!DOCTYPE svg PUBLIC "-//W3C//DTD SVG 1.1//EN" "http://www.w3.org/Graphics/SVG/1.1/DTD/svg11.dtd"><svg width="100%" height="100%" viewBox="0 0 15 9" version="1.1" xmlns="http://www.w3.org/2000/svg" xmlns:xlink="http://www.w3.org/1999/xlink" xml:space="preserve" xmlns:serif="http://www.serif.com/" style="fill-rule:evenodd;clip-rule:evenodd;stroke-linejoin:round;stroke-miterlimit:1.41421;"><path d="M9.493,0.405l4.235,0c0.348,-0.001 0.597,0.278 0.603,0.614l0.012,4.297c-0.033,0.866 -0.978,1.236 -1.486,0.645l-1.179,-1.163l-3.52,3.475c-0.481,0.523 -1.188,0.544 -1.63,0.018l-2.685,-2.629l-1.679,1.65c-0.262,0.243 -0.595,0.245 -0.786,0.031l-0.844,-0.849c-0.267,-0.238 -0.271,-0.6 -0.009,-0.841l2.507,-2.57c0.433,-0.417 1.166,-0.402 1.608,0.024l2.708,2.763l2.692,-2.777l-1.177,-1.184c-0.59,-0.534 -0.208,-1.474 0.63,-1.504Z" style="fill:#2d4d60;"/></svg>