<?xml version="1.0" encoding="UTF-8" standalone="no"?><!DOCTYPE svg PUBLIC "-//W3C//DTD SVG 1.1//EN" "http://www.w3.org/Graphics/SVG/1.1/DTD/svg11.dtd"><svg width="100%" height="100%" viewBox="0 0 15 15" version="1.1" xmlns="http://www.w3.org/2000/svg" xmlns:xlink="http://www.w3.org/1999/xlink" xml:space="preserve" xmlns:serif="http://www.serif.com/" style="fill-rule:evenodd;clip-rule:evenodd;stroke-linejoin:round;stroke-miterlimit:2;"><g><path d="M7.82,0.122l2.382,0l0,1.575c-0.782,-0.094 -1.576,-0.095 -2.382,0l0,-1.575" style="fill:#2d4d60;"/><path d="M14.72,2.933l-0.834,-0.807l-0.762,0.787l0.833,0.807l0.763,-0.787Z" style="fill:#2d4d60;"/><rect x="2.475" y="10.155" width="4.738" height="1.254" style="fill:#2d4d60;"/><rect x="0.732" y="7.793" width="4.738" height="1.254" style="fill:#2d4d60;"/><rect x="1.927" y="5.405" width="4.738" height="1.254" style="fill:#2d4d60;"/><path d="M4.856,4.223l1.878,0c3.21,-1.3 6.543,0.151 7.066,4.278c-0.326,3.441 -3.601,5.59 -6.961,4.056l-1.978,0c1.303,1.347 2.755,1.904 4.336,1.779c3.822,-0.352 5.496,-2.508 5.781,-5.833c-0.072,-3.432 -1.961,-5.336 -5.332,-5.995c-2.031,-0.154 -3.604,0.456 -4.79,1.715Z" style="fill:#2d4d60;"/><path d="M9.304,7.224l2.129,-1.819l0.251,0.194l-1.505,2.399c0.097,0.429 0.034,0.835 -0.262,1.207c-0.593,0.489 -1.165,0.482 -1.718,0.011c-0.467,-0.569 -0.466,-1.089 -0.1,-1.57c0.255,-0.305 0.646,-0.458 1.205,-0.422Z" style="fill:#2d4d60;"/></g></svg>