<?xml version="1.0" encoding="UTF-8" standalone="no"?><!DOCTYPE svg PUBLIC "-//W3C//DTD SVG 1.1//EN" "http://www.w3.org/Graphics/SVG/1.1/DTD/svg11.dtd"><svg width="100%" height="100%" viewBox="0 0 119 13" version="1.1" xmlns="http://www.w3.org/2000/svg" xmlns:xlink="http://www.w3.org/1999/xlink" xml:space="preserve" xmlns:serif="http://www.serif.com/" style="fill-rule:evenodd;clip-rule:evenodd;stroke-linecap:round;stroke-linejoin:round;stroke-miterlimit:1.5;"><g id="status-indicator" serif:id="status indicator"><g id="indicator-v1" serif:id="indicator v1"><path d="M112.817,6.632c0,-1.187 -0.964,-2.151 -2.151,-2.151l-101.824,0c-1.187,0 -2.151,0.964 -2.151,2.151c0,1.187 0.964,2.151 2.151,2.151l101.824,0c1.187,0 2.151,-0.964 2.151,-2.151Z" style="fill:#fff;stroke:#000;stroke-width:1.5px;"/><circle cx="6.691" cy="6.632" r="5.38" style="fill:#fff;stroke:#000;stroke-width:1.5px;"/><circle cx="112.817" cy="6.632" r="5.38" style="fill:#fff;stroke:#000;stroke-width:1.5px;"/><circle cx="42.067" cy="6.632" r="5.38" style="fill:#fff;stroke:#000;stroke-width:1.5px;"/><circle cx="77.442" cy="6.632" r="5.38" style="fill:#fff;stroke:#000;stroke-width:1.5px;"/><rect x="10.179" y="5.261" width="99.575" height="2.765" style="fill:#fff;"/></g><g id="indicator-v2" serif:id="indicator v2"><path d="M112.817,6.632c0,-1.187 -0.964,-2.151 -2.151,-2.151l-101.824,0c-1.187,0 -2.151,0.964 -2.151,2.151c0,1.187 0.964,2.151 2.151,2.151l101.824,0c1.187,0 2.151,-0.964 2.151,-2.151Z" style="fill:#fff;"/><circle cx="6.691" cy="6.632" r="5.38" style="fill:#fff;"/><circle cx="112.817" cy="6.632" r="5.38" style="fill:#fff;"/><circle cx="42.067" cy="6.632" r="5.38" style="fill:#fff;"/><circle cx="77.442" cy="6.632" r="5.38" style="fill:#fff;"/><rect x="10.179" y="4.979" width="99.575" height="3.278" style="fill:#fff;"/></g><g><circle cx="6.691" cy="6.632" r="5.38" style="fill:#0094ff;"/></g></g></svg>