<?xml version="1.0" encoding="UTF-8" standalone="no"?><!DOCTYPE svg PUBLIC "-//W3C//DTD SVG 1.1//EN" "http://www.w3.org/Graphics/SVG/1.1/DTD/svg11.dtd"><svg width="100%" height="100%" viewBox="0 0 19 18" version="1.1" xmlns="http://www.w3.org/2000/svg" xmlns:xlink="http://www.w3.org/1999/xlink" xml:space="preserve" xmlns:serif="http://www.serif.com/" style="fill-rule:evenodd;clip-rule:evenodd;stroke-linecap:round;stroke-linejoin:round;stroke-miterlimit:1.5;"><path d="M9.384,1.278c0.068,-0.158 0.224,-0.26 0.396,-0.26c0.171,0 0.327,0.102 0.395,0.26l2.136,4.977l5.393,0.493c0.171,0.016 0.317,0.132 0.37,0.296c0.053,0.163 0.004,0.343 -0.126,0.456l-4.073,3.57l1.197,5.281c0.038,0.168 -0.027,0.342 -0.166,0.443c-0.139,0.101 -0.325,0.11 -0.473,0.022l-4.653,-2.771l-4.654,2.771c-0.148,0.088 -0.334,0.079 -0.473,-0.022c-0.139,-0.101 -0.204,-0.275 -0.166,-0.443l1.197,-5.281l-4.073,-3.57c-0.13,-0.113 -0.179,-0.293 -0.126,-0.456c0.053,-0.164 0.199,-0.28 0.37,-0.296l5.393,-0.493l2.136,-4.977Z" style="fill:none;stroke:#fff;stroke-width:1.33px;"/></svg>