<?xml version="1.0" encoding="UTF-8" standalone="no"?><!DOCTYPE svg PUBLIC "-//W3C//DTD SVG 1.1//EN" "http://www.w3.org/Graphics/SVG/1.1/DTD/svg11.dtd"><svg width="100%" height="100%" viewBox="0 0 15 18" version="1.1" xmlns="http://www.w3.org/2000/svg" xmlns:xlink="http://www.w3.org/1999/xlink" xml:space="preserve" xmlns:serif="http://www.serif.com/" style="fill-rule:evenodd;clip-rule:evenodd;stroke-linejoin:round;stroke-miterlimit:1.41421;"><g id="person"><path d="M10.388,10.483l0.137,0.005l0.133,0.007l0.131,0.01l0.129,0.012l0.126,0.014l0.123,0.017l0.121,0.019l0.119,0.021l0.117,0.023l0.114,0.026l0.111,0.028l0.109,0.03l0.107,0.032l0.105,0.034l0.103,0.037l0.1,0.038l0.098,0.041l0.095,0.043l0.094,0.045l0.091,0.046l0.09,0.049l0.087,0.051l0.085,0.053l0.083,0.054l0.08,0.057l0.079,0.059l0.077,0.06l0.075,0.062l0.072,0.065l0.071,0.066l0.069,0.068l0.067,0.069l0.065,0.072l0.063,0.073l0.061,0.075l0.06,0.077l0.058,0.078l0.055,0.08l0.054,0.082l0.053,0.083l0.05,0.085l0.049,0.087l0.047,0.088l0.046,0.09l0.043,0.091l0.043,0.093l0.04,0.095l0.039,0.095l0.037,0.098l0.036,0.099l0.034,0.1l0.033,0.102l0.031,0.103l0.03,0.104l0.029,0.106l0.026,0.107l0.026,0.109l0.024,0.109l0.023,0.112l0.021,0.112l0.02,0.114l0.019,0.114l0.017,0.116l0.016,1.089l-0.004,0.05l-0.004,0.049l-0.006,0.049l-0.006,0.048l-0.007,0.047l-0.008,0.046l-0.008,0.046l-0.01,0.045l-0.01,0.044l-0.011,0.043l-0.012,0.043l-0.012,0.042l-0.014,0.041l-0.014,0.041l-0.015,0.039l-0.015,0.039l-0.017,0.039l-0.017,0.037l-0.018,0.037l-0.019,0.037l-0.019,0.035l-0.021,0.035l-0.021,0.034l-0.021,0.034l-0.023,0.032l-0.023,0.032l-0.024,0.032l-0.025,0.031l-0.025,0.03l-0.026,0.029l-0.027,0.029l-0.027,0.028l-0.029,0.027l-0.029,0.027l-0.029,0.026l-0.031,0.026l-0.031,0.025l-0.032,0.024l-0.032,0.023l-0.033,0.023l-0.034,0.022l-0.035,0.022l-0.035,0.021l-0.036,0.02l-0.036,0.02l-0.037,0.019l-0.038,0.019l-0.039,0.018l-0.039,0.017l-0.04,0.017l-0.04,0.016l-0.042,0.015l-0.041,0.015l-0.043,0.015l-0.043,0.013l-0.044,0.013l-0.089,0.025l-0.092,0.022l-0.094,0.02l-0.097,0.018l-10.585,0l-0.097,-0.018l-0.094,-0.02l-0.092,-0.022l-0.089,-0.025l-0.044,-0.013l-0.043,-0.013l-0.042,-0.015l-0.042,-0.015l-0.041,-0.015l-0.041,-0.016l-0.04,-0.017l-0.039,-0.017l-0.038,-0.018l-0.038,-0.019l-0.038,-0.019l-0.036,-0.02l-0.036,-0.02l-0.035,-0.021l-0.035,-0.022l-0.034,-0.022l-0.033,-0.023l-0.032,-0.023l-0.032,-0.024l-0.031,-0.025l-0.03,-0.026l-0.03,-0.026l-0.029,-0.027l-0.028,-0.027l-0.028,-0.028l-0.027,-0.029l-0.026,-0.029l-0.025,-0.03l-0.025,-0.031l-0.024,-0.032l-0.023,-0.032l-0.023,-0.032l-0.021,-0.034l-0.021,-0.034l-0.02,-0.035l-0.02,-0.035l-0.019,-0.037l-0.018,-0.037l-0.017,-0.037l-0.016,-0.039l-0.016,-0.039l-0.015,-0.039l-0.014,-0.041l-0.013,-0.041l-0.013,-0.042l-0.012,-0.043l-0.011,-0.043l-0.01,-0.044l-0.009,-0.045l-0.009,-0.046l-0.008,-0.046l-0.007,-0.047l-0.006,-0.048l-0.006,-0.049l-0.004,-0.049l-0.004,-0.05l0.016,-1.089l0.017,-0.116l0.019,-0.114l0.02,-0.114l0.022,-0.112l0.022,-0.112l0.024,-0.109l0.026,-0.109l0.027,-0.107l0.028,-0.106l0.03,-0.104l0.031,-0.103l0.033,-0.102l0.034,-0.1l0.036,-0.099l0.037,-0.098l0.039,-0.095l0.041,-0.095l0.042,-0.093l0.044,-0.091l0.045,-0.09l0.047,-0.088l0.049,-0.087l0.051,-0.085l0.052,-0.083l0.054,-0.082l0.056,-0.08l0.057,-0.078l0.06,-0.077l0.061,-0.075l0.063,-0.073l0.065,-0.072l0.067,-0.069l0.069,-0.068l0.071,-0.066l0.073,-0.065l0.074,-0.062l0.077,-0.06l0.079,-0.059l0.081,-0.057l0.083,-0.054l0.085,-0.053l0.087,-0.051l0.089,-0.049l0.091,-0.046l0.094,-0.045l0.096,-0.043l0.098,-0.041l0.1,-0.038l0.102,-0.037l0.105,-0.034l0.107,-0.032l0.109,-0.03l0.112,-0.028l0.114,-0.026l0.116,-0.023l0.119,-0.021l0.121,-0.019l0.124,-0.017l0.126,-0.014l0.128,-0.012l0.131,-0.01l0.134,-0.007l0.136,-0.005l0.138,-0.002l0.074,0.039l0.074,0.037l0.075,0.037l0.074,0.034l0.075,0.034l0.075,0.032l0.076,0.031l0.075,0.029l0.076,0.028l0.076,0.027l0.076,0.026l0.077,0.024l0.076,0.022l0.077,0.022l0.077,0.02l0.078,0.019l0.077,0.017l0.078,0.017l0.078,0.015l0.078,0.013l0.079,0.013l0.078,0.011l0.079,0.01l0.079,0.008l0.079,0.008l0.08,0.006l0.08,0.005l0.08,0.003l0.08,0.003l0.08,0.001l0.081,0l0.08,-0.002l0,0.004l0.077,-0.001l0.076,-0.003l0.078,-0.004l0.077,-0.005l0.078,-0.006l0.079,-0.007l0.078,-0.008l0.079,-0.009l0.078,-0.01l0.079,-0.011l0.079,-0.013l0.079,-0.013l0.079,-0.015l0.079,-0.015l0.078,-0.017l0.079,-0.018l0.078,-0.019l0.078,-0.02l0.077,-0.021l0.077,-0.022l0.077,-0.024l0.076,-0.024l0.075,-0.026l0.075,-0.027l0.075,-0.028l0.073,-0.029l0.073,-0.03l0.072,-0.031l0.072,-0.033l0.07,-0.034l0.069,-0.034l0.069,-0.036l0.138,0.002Zm0.111,1.322l-0.093,0.04l-0.093,0.039l-0.093,0.037l-0.095,0.036l-0.095,0.034l-0.095,0.032l-0.095,0.03l-0.094,0.029l-0.097,0.028l-0.096,0.027l-0.095,0.024l-0.096,0.023l-0.096,0.022l-0.097,0.021l-0.096,0.019l-0.097,0.018l-0.097,0.016l-0.094,0.015l-0.096,0.014l-0.098,0.013l-0.095,0.011l-0.094,0.009l-0.097,0.009l-0.095,0.007l-0.095,0.006l-0.094,0.005l-0.095,0.003l-0.086,0.002l-0.083,-0.001l-0.02,-0.001l-0.095,0l-0.1,-0.002l-0.1,-0.003l-0.1,-0.004l-0.1,-0.006l-0.1,-0.008l-0.1,-0.009l-0.1,-0.011l-0.1,-0.012l-0.099,-0.015l-0.099,-0.015l-0.1,-0.018l-0.098,-0.019l-0.099,-0.02l-0.099,-0.023l-0.098,-0.024l-0.099,-0.025l-0.096,-0.027l-0.097,-0.029l-0.097,-0.031l-0.097,-0.032l-0.098,-0.034l-0.096,-0.036l-0.095,-0.037l-0.095,-0.039l-0.094,-0.04l-0.093,-0.042l-0.044,-0.02l-0.038,0.002l-0.107,0.008l-0.103,0.009l-0.1,0.012l-0.096,0.013l-0.094,0.014l-0.091,0.016l-0.088,0.018l-0.085,0.019l-0.081,0.02l-0.079,0.022l-0.078,0.024l-0.074,0.024l-0.07,0.025l-0.07,0.027l-0.067,0.027l-0.064,0.029l-0.062,0.029l-0.06,0.031l-0.058,0.032l-0.056,0.033l-0.055,0.034l-0.052,0.035l-0.05,0.035l-0.049,0.036l-0.05,0.04l-0.047,0.039l-0.046,0.04l-0.044,0.041l-0.043,0.042l-0.043,0.045l-0.042,0.046l-0.04,0.046l-0.04,0.05l-0.04,0.051l-0.037,0.051l-0.037,0.053l-0.037,0.055l-0.036,0.058l-0.036,0.06l-0.034,0.06l-0.033,0.062l-0.032,0.064l-0.032,0.067l-0.031,0.069l-0.03,0.068l-0.029,0.073l-0.029,0.076l-0.028,0.075l-0.026,0.078l-0.026,0.081l-0.025,0.082l-0.024,0.083l-0.023,0.087l-0.022,0.088l-0.021,0.087l-0.02,0.093l-0.019,0.093l-0.018,0.094l-0.017,0.098l-0.016,0.099l-0.003,0.022l-0.014,0.941l0,0.005l0.004,0.027l0.003,0.027l0.002,0.016l0.004,0.024l0.005,0.023l0.003,0.016l0.005,0.021l0.004,0.014l0.005,0.018l0.004,0.017l0.003,0.006l0.005,0.015l0.007,0.018l0.003,0.008l0.003,0.008l0.005,0.011l0.008,0.015l0.009,0.017l0.011,0.016l0.01,0.015l0.01,0.011l0.014,0.014l0.009,0.009l0.008,0.007l0.012,0.01l0.007,0.005l0.009,0.007l0.011,0.007l0.009,0.007l0.009,0.005l0.011,0.006l0.011,0.007l0.013,0.007l0.015,0.008l0.014,0.006l0.015,0.007l0.018,0.008l0.016,0.007l0.018,0.007l0.02,0.008l0.02,0.007l0.021,0.007l0.023,0.007l0.017,0.005l0.056,0.016l0.055,0.013l0.027,0.005l10.34,0l0.026,-0.005l0.055,-0.013l0.056,-0.016l0.017,-0.005l0.023,-0.007l0.022,-0.007l0.019,-0.007l0.021,-0.008l0.017,-0.007l0.014,-0.006l0.02,-0.009l0.017,-0.008l0.012,-0.005l0.015,-0.008l0.013,-0.007l0.012,-0.007l0.011,-0.006l0.008,-0.005l0.009,-0.007l0.011,-0.007l0.01,-0.007l0.006,-0.005l0.007,-0.005l0.008,-0.007l0.005,-0.005l0.004,-0.003l0.006,-0.006l0.008,-0.009l0.005,-0.005l0.001,-0.001l0.005,-0.005l0.004,-0.005l0.005,-0.008l0.006,-0.007l0.001,-0.002l0.005,-0.007l0.004,-0.007l0.005,-0.008l0.005,-0.009l0.002,-0.005l0.005,-0.01l0.005,-0.011l0.003,-0.008l0.005,-0.012l0.006,-0.014l0.003,-0.01l0.004,-0.011l0.005,-0.017l0.005,-0.018l0.003,-0.014l0.005,-0.021l0.004,-0.021l0.004,-0.018l0.003,-0.019l0.003,-0.021l0.004,-0.027l0.003,-0.027l0.001,-0.008l-0.014,-0.94l-0.003,-0.02l-0.017,-0.099l-0.017,-0.098l-0.017,-0.092l-0.02,-0.095l-0.02,-0.093l-0.021,-0.087l-0.022,-0.088l-0.023,-0.087l-0.024,-0.083l-0.025,-0.082l-0.026,-0.081l-0.026,-0.078l-0.028,-0.075l-0.029,-0.076l-0.029,-0.073l-0.03,-0.068l-0.031,-0.069l-0.032,-0.067l-0.032,-0.064l-0.033,-0.062l-0.035,-0.062l-0.035,-0.058l-0.036,-0.058l-0.036,-0.055l-0.037,-0.052l-0.039,-0.054l-0.038,-0.049l-0.04,-0.048l-0.041,-0.048l-0.042,-0.046l-0.043,-0.045l-0.043,-0.043l-0.044,-0.04l-0.045,-0.04l-0.048,-0.04l-0.048,-0.038l-0.049,-0.037l-0.051,-0.035l-0.053,-0.035l-0.055,-0.034l-0.057,-0.034l-0.057,-0.031l-0.059,-0.03l-0.063,-0.03l-0.064,-0.029l-0.067,-0.027l-0.07,-0.027l-0.07,-0.025l-0.074,-0.024l-0.077,-0.024l-0.079,-0.022l-0.082,-0.02l-0.085,-0.019l-0.088,-0.018l-0.091,-0.016l-0.093,-0.014l-0.097,-0.013l-0.1,-0.012l-0.103,-0.009l-0.107,-0.008l-0.043,-0.003l-0.032,0.015Z" style="fill:#fff;"/><path d="M8.055,0.536l0.113,0.004l0.111,0.007l0.111,0.01l0.11,0.013l0.109,0.015l0.109,0.018l0.107,0.021l0.107,0.023l0.105,0.026l0.105,0.028l0.103,0.031l0.102,0.033l0.102,0.036l0.1,0.038l0.099,0.04l0.097,0.043l0.097,0.045l0.095,0.047l0.094,0.05l0.092,0.052l0.091,0.054l0.09,0.056l0.088,0.058l0.087,0.06l0.085,0.062l0.084,0.064l0.082,0.066l0.08,0.068l0.079,0.07l0.077,0.071l0.075,0.074l0.073,0.075l0.072,0.077l0.07,0.079l0.068,0.08l0.066,0.082l0.064,0.084l0.062,0.085l0.06,0.087l0.058,0.088l0.056,0.09l0.054,0.091l0.052,0.092l0.05,0.094l0.047,0.095l0.045,0.097l0.043,0.097l0.04,0.099l0.038,0.1l0.036,0.101l0.033,0.103l0.031,0.103l0.028,0.105l0.026,0.105l0.023,0.107l0.021,0.107l0.018,0.109l0.015,0.109l0.013,0.11l0.01,0.111l0.007,0.111l0.004,0.113l0.001,0.113l-0.001,0.113l-0.004,0.112l-0.007,0.112l-0.01,0.111l-0.013,0.11l-0.015,0.109l-0.018,0.108l-0.021,0.107l-0.023,0.107l-0.026,0.105l-0.028,0.105l-0.031,0.103l-0.033,0.103l-0.036,0.101l-0.038,0.1l-0.04,0.099l-0.043,0.098l-0.045,0.096l-0.047,0.095l-0.05,0.094l-0.052,0.093l-0.054,0.091l-0.056,0.089l-0.058,0.089l-0.06,0.086l-0.062,0.085l-0.064,0.084l-0.066,0.082l-0.068,0.08l-0.07,0.079l-0.072,0.077l-0.073,0.075l-0.075,0.074l-0.077,0.071l-0.079,0.07l-0.08,0.068l-0.082,0.066l-0.084,0.064l-0.085,0.063l-0.087,0.06l-0.088,0.058l-0.09,0.056l-0.091,0.054l-0.092,0.051l-0.094,0.05l-0.095,0.047l-0.097,0.045l-0.097,0.043l-0.099,0.04l-0.1,0.039l-0.102,0.035l-0.102,0.033l-0.103,0.031l-0.105,0.029l-0.105,0.025l-0.107,0.024l-0.107,0.02l-0.109,0.018l-0.109,0.015l-0.11,0.013l-0.111,0.01l-0.111,0.007l-0.113,0.004l-0.113,0.002l-0.113,-0.002l-0.112,-0.004l-0.112,-0.007l-0.111,-0.01l-0.11,-0.013l-0.109,-0.015l-0.108,-0.018l-0.108,-0.02l-0.106,-0.024l-0.106,-0.025l-0.104,-0.029l-0.103,-0.031l-0.103,-0.033l-0.101,-0.035l-0.1,-0.039l-0.099,-0.04l-0.098,-0.043l-0.096,-0.045l-0.095,-0.047l-0.094,-0.05l-0.093,-0.051l-0.091,-0.054l-0.089,-0.056l-0.089,-0.058l-0.086,-0.06l-0.085,-0.063l-0.084,-0.064l-0.082,-0.066l-0.08,-0.068l-0.079,-0.07l-0.077,-0.071l-0.075,-0.074l-0.074,-0.075l-0.072,-0.077l-0.069,-0.079l-0.068,-0.08l-0.066,-0.082l-0.064,-0.084l-0.063,-0.085l-0.06,-0.086l-0.058,-0.089l-0.056,-0.089l-0.054,-0.091l-0.051,-0.093l-0.05,-0.094l-0.047,-0.095l-0.045,-0.096l-0.043,-0.098l-0.04,-0.099l-0.039,-0.1l-0.035,-0.101l-0.034,-0.103l-0.03,-0.103l-0.029,-0.105l-0.025,-0.105l-0.024,-0.107l-0.02,-0.107l-0.018,-0.108l-0.015,-0.109l-0.013,-0.11l-0.01,-0.111l-0.007,-0.112l-0.004,-0.112l-0.002,-0.113l0.002,-0.113l0.004,-0.113l0.007,-0.111l0.01,-0.111l0.013,-0.11l0.015,-0.109l0.018,-0.109l0.02,-0.107l0.024,-0.107l0.025,-0.105l0.029,-0.105l0.03,-0.103l0.034,-0.103l0.035,-0.101l0.039,-0.1l0.04,-0.099l0.043,-0.097l0.045,-0.097l0.047,-0.095l0.05,-0.094l0.051,-0.092l0.054,-0.091l0.056,-0.09l0.058,-0.088l0.06,-0.087l0.063,-0.085l0.064,-0.084l0.066,-0.082l0.068,-0.08l0.069,-0.079l0.072,-0.077l0.074,-0.075l0.075,-0.074l0.077,-0.071l0.079,-0.07l0.08,-0.068l0.082,-0.066l0.084,-0.064l0.085,-0.062l0.086,-0.06l0.089,-0.058l0.089,-0.056l0.091,-0.054l0.093,-0.052l0.094,-0.05l0.095,-0.047l0.096,-0.045l0.098,-0.043l0.099,-0.04l0.1,-0.038l0.101,-0.036l0.103,-0.033l0.103,-0.031l0.104,-0.028l0.106,-0.026l0.106,-0.023l0.108,-0.021l0.108,-0.018l0.109,-0.015l0.11,-0.013l0.111,-0.01l0.112,-0.007l0.112,-0.004l0.113,-0.001l0.113,0.001Zm-0.193,1.3l-0.079,0.003l-0.079,0.005l-0.077,0.007l-0.078,0.008l-0.077,0.011l-0.076,0.013l-0.077,0.015l-0.074,0.016l-0.073,0.018l-0.073,0.019l-0.072,0.022l-0.074,0.024l-0.07,0.025l-0.069,0.026l-0.07,0.029l-0.07,0.03l-0.067,0.031l-0.066,0.033l-0.066,0.035l-0.065,0.036l-0.063,0.038l-0.064,0.04l-0.064,0.041l-0.06,0.043l-0.06,0.043l-0.059,0.045l-0.057,0.046l-0.057,0.048l-0.056,0.05l-0.053,0.05l-0.054,0.052l-0.053,0.054l-0.049,0.053l-0.05,0.056l-0.048,0.057l-0.046,0.057l-0.046,0.06l-0.043,0.059l-0.042,0.061l-0.042,0.064l-0.039,0.062l-0.038,0.064l-0.036,0.065l-0.035,0.065l-0.033,0.067l-0.032,0.069l-0.03,0.068l-0.029,0.07l-0.026,0.069l-0.025,0.071l-0.023,0.073l-0.022,0.072l-0.019,0.072l-0.018,0.074l-0.017,0.075l-0.014,0.076l-0.013,0.076l-0.011,0.078l-0.009,0.077l-0.007,0.077l-0.005,0.078l-0.003,0.08l-0.001,0.081l0.001,0.08l0.003,0.08l0.005,0.078l0.007,0.077l0.009,0.077l0.011,0.078l0.013,0.076l0.014,0.076l0.017,0.075l0.018,0.074l0.019,0.072l0.022,0.072l0.023,0.074l0.025,0.07l0.026,0.069l0.029,0.07l0.03,0.069l0.032,0.069l0.033,0.066l0.035,0.065l0.036,0.065l0.037,0.063l0.04,0.064l0.042,0.063l0.042,0.061l0.044,0.06l0.045,0.059l0.045,0.056l0.049,0.058l0.05,0.057l0.049,0.052l0.053,0.054l0.054,0.053l0.052,0.049l0.057,0.05l0.057,0.048l0.056,0.045l0.06,0.046l0.061,0.044l0.059,0.042l0.064,0.041l0.064,0.04l0.063,0.038l0.065,0.036l0.065,0.035l0.067,0.033l0.068,0.032l0.069,0.03l0.07,0.028l0.069,0.027l0.07,0.024l0.074,0.024l0.072,0.022l0.071,0.019l0.075,0.018l0.075,0.017l0.076,0.014l0.076,0.013l0.077,0.011l0.078,0.009l0.077,0.007l0.078,0.004l0.08,0.003l0.08,0.002l0.081,-0.002l0.08,-0.003l0.078,-0.004l0.077,-0.007l0.077,-0.009l0.077,-0.011l0.077,-0.013l0.075,-0.014l0.075,-0.017l0.075,-0.018l0.072,-0.019l0.072,-0.022l0.073,-0.024l0.071,-0.024l0.069,-0.027l0.07,-0.028l0.068,-0.03l0.069,-0.032l0.067,-0.033l0.065,-0.035l0.064,-0.036l0.064,-0.038l0.064,-0.04l0.062,-0.041l0.061,-0.042l0.06,-0.044l0.06,-0.046l0.057,-0.045l0.057,-0.048l0.056,-0.05l0.053,-0.049l0.054,-0.053l0.052,-0.054l0.049,-0.052l0.05,-0.057l0.049,-0.058l0.046,-0.056l0.045,-0.059l0.043,-0.06l0.043,-0.061l0.041,-0.063l0.04,-0.064l0.038,-0.063l0.036,-0.065l0.035,-0.066l0.032,-0.065l0.032,-0.068l0.03,-0.07l0.029,-0.07l0.026,-0.069l0.025,-0.07l0.024,-0.074l0.021,-0.072l0.02,-0.073l0.018,-0.073l0.016,-0.074l0.015,-0.077l0.013,-0.076l0.01,-0.078l0.009,-0.077l0.007,-0.077l0.005,-0.078l0.003,-0.08l0.001,-0.08l-0.001,-0.081l-0.003,-0.08l-0.005,-0.078l-0.007,-0.077l-0.009,-0.077l-0.01,-0.078l-0.013,-0.076l-0.015,-0.077l-0.016,-0.074l-0.018,-0.073l-0.02,-0.073l-0.021,-0.072l-0.024,-0.073l-0.025,-0.071l-0.026,-0.069l-0.029,-0.07l-0.03,-0.07l-0.031,-0.067l-0.033,-0.066l-0.035,-0.066l-0.037,-0.065l-0.037,-0.064l-0.039,-0.062l-0.042,-0.064l-0.043,-0.061l-0.043,-0.059l-0.045,-0.06l-0.046,-0.057l-0.049,-0.057l-0.049,-0.056l-0.05,-0.053l-0.052,-0.054l-0.054,-0.052l-0.054,-0.051l-0.055,-0.049l-0.056,-0.047l-0.059,-0.047l-0.059,-0.045l-0.059,-0.043l-0.062,-0.043l-0.062,-0.041l-0.064,-0.04l-0.064,-0.038l-0.064,-0.036l-0.066,-0.035l-0.066,-0.033l-0.068,-0.031l-0.069,-0.03l-0.07,-0.029l-0.069,-0.026l-0.071,-0.025l-0.073,-0.024l-0.072,-0.022l-0.073,-0.019l-0.074,-0.018l-0.074,-0.016l-0.076,-0.015l-0.077,-0.013l-0.077,-0.011l-0.077,-0.008l-0.077,-0.007l-0.079,-0.005l-0.08,-0.003l-0.08,-0.001l-0.08,0.001Z" style="fill:#fff;"/></g></svg>