<?xml version="1.0" encoding="UTF-8" standalone="no"?><!DOCTYPE svg PUBLIC "-//W3C//DTD SVG 1.1//EN" "http://www.w3.org/Graphics/SVG/1.1/DTD/svg11.dtd"><svg width="100%" height="100%" viewBox="0 0 24 18" version="1.1" xmlns="http://www.w3.org/2000/svg" xmlns:xlink="http://www.w3.org/1999/xlink" xml:space="preserve" xmlns:serif="http://www.serif.com/" style="fill-rule:evenodd;clip-rule:evenodd;stroke-linejoin:round;stroke-miterlimit:1.41421;"><g id="team"><g><path d="M14.65,10.147l0.137,0.005l0.134,0.007l0.131,0.01l0.129,0.012l0.126,0.014l0.124,0.017l0.121,0.019l0.119,0.021l0.117,0.023l0.114,0.026l0.112,0.028l0.11,0.03l0.107,0.032l0.105,0.034l0.102,0.037l0.101,0.039l0.098,0.04l0.096,0.043l0.094,0.045l0.091,0.047l0.09,0.049l0.087,0.051l0.085,0.053l0.083,0.054l0.081,0.057l0.079,0.059l0.077,0.061l0.075,0.062l0.073,0.064l0.071,0.067l0.069,0.068l0.067,0.069l0.065,0.072l0.063,0.073l0.062,0.076l0.059,0.076l0.058,0.079l0.056,0.08l0.054,0.082l0.053,0.084l0.05,0.085l0.049,0.087l0.048,0.088l0.045,0.09l0.044,0.092l0.042,0.093l0.041,0.094l0.039,0.097l0.037,0.097l0.036,0.099l0.034,0.101l0.033,0.102l0.032,0.103l0.029,0.105l0.029,0.106l0.027,0.107l0.025,0.109l0.024,0.11l0.023,0.111l0.022,0.113l0.02,0.114l0.018,0.115l0.018,0.116l0.016,1.091l-0.004,0.05l-0.004,0.05l-0.006,0.048l-0.006,0.048l-0.007,0.048l-0.008,0.046l-0.009,0.046l-0.009,0.045l-0.01,0.044l-0.011,0.043l-0.012,0.043l-0.013,0.042l-0.013,0.041l-0.014,0.041l-0.015,0.04l-0.016,0.039l-0.017,0.038l-0.017,0.038l-0.018,0.037l-0.019,0.037l-0.019,0.035l-0.02,0.035l-0.021,0.034l-0.022,0.034l-0.023,0.033l-0.023,0.032l-0.024,0.031l-0.025,0.031l-0.025,0.03l-0.026,0.03l-0.027,0.029l-0.028,0.028l-0.028,0.027l-0.029,0.027l-0.03,0.026l-0.03,0.026l-0.031,0.025l-0.032,0.024l-0.033,0.023l-0.033,0.023l-0.034,0.023l-0.035,0.021l-0.035,0.021l-0.036,0.021l-0.037,0.02l-0.037,0.019l-0.038,0.018l-0.038,0.018l-0.04,0.018l-0.04,0.016l-0.04,0.017l-0.042,0.015l-0.041,0.015l-0.043,0.014l-0.043,0.014l-0.044,0.013l-0.089,0.025l-0.093,0.022l-0.094,0.02l-0.097,0.018l-5.284,0l-5.324,0l-0.097,-0.018l-0.095,-0.02l-0.092,-0.022l-0.089,-0.025l-0.044,-0.013l-0.043,-0.014l-0.043,-0.014l-0.042,-0.015l-0.041,-0.015l-0.041,-0.017l-0.039,-0.016l-0.04,-0.018l-0.038,-0.018l-0.038,-0.018l-0.038,-0.019l-0.036,-0.02l-0.036,-0.021l-0.036,-0.021l-0.034,-0.021l-0.034,-0.023l-0.033,-0.023l-0.033,-0.023l-0.032,-0.024l-0.031,-0.025l-0.03,-0.026l-0.03,-0.026l-0.029,-0.027l-0.028,-0.027l-0.028,-0.028l-0.027,-0.029l-0.026,-0.03l-0.026,-0.03l-0.024,-0.031l-0.024,-0.031l-0.023,-0.032l-0.023,-0.033l-0.022,-0.034l-0.021,-0.034l-0.02,-0.035l-0.02,-0.035l-0.018,-0.037l-0.018,-0.037l-0.018,-0.038l-0.016,-0.038l-0.016,-0.039l-0.015,-0.04l-0.014,-0.041l-0.013,-0.041l-0.013,-0.042l-0.012,-0.043l-0.011,-0.043l-0.01,-0.044l-0.01,-0.045l-0.008,-0.046l-0.008,-0.046l-0.007,-0.048l-0.006,-0.048l-0.006,-0.048l-0.004,-0.05l-0.004,-0.05l0.016,-1.091l0.017,-0.116l0.019,-0.115l0.02,-0.114l0.022,-0.113l0.022,-0.111l0.025,-0.11l0.025,-0.109l0.027,-0.107l0.028,-0.106l0.03,-0.105l0.032,-0.103l0.032,-0.102l0.035,-0.101l0.036,-0.099l0.037,-0.097l0.039,-0.097l0.041,-0.094l0.042,-0.093l0.044,-0.092l0.045,-0.09l0.048,-0.088l0.048,-0.087l0.051,-0.085l0.052,-0.084l0.055,-0.082l0.056,-0.08l0.057,-0.079l0.06,-0.076l0.061,-0.076l0.064,-0.073l0.065,-0.072l0.067,-0.069l0.069,-0.068l0.071,-0.067l0.073,-0.064l0.075,-0.062l0.077,-0.061l0.079,-0.059l0.081,-0.057l0.083,-0.054l0.085,-0.053l0.087,-0.051l0.09,-0.049l0.091,-0.047l0.094,-0.045l0.096,-0.043l0.098,-0.04l0.1,-0.039l0.103,-0.037l0.105,-0.034l0.107,-0.032l0.11,-0.03l0.112,-0.028l0.114,-0.026l0.116,-0.023l0.119,-0.021l0.122,-0.019l0.124,-0.017l0.126,-0.014l0.129,-0.012l0.131,-0.01l0.134,-0.007l0.136,-0.005l0.139,-0.003l0.074,0.039l0.075,0.038l0.074,0.036l0.075,0.035l0.075,0.034l0.075,0.032l0.076,0.031l0.075,0.029l0.076,0.028l0.076,0.027l0.077,0.026l0.076,0.024l0.077,0.023l0.077,0.021l0.078,0.021l0.077,0.018l0.078,0.018l0.078,0.016l0.078,0.015l0.078,0.014l0.079,0.012l0.079,0.012l0.079,0.01l0.079,0.008l0.08,0.008l0.079,0.006l0.08,0.004l0.08,0.004l0.08,0.002l0.081,0.002l0.081,-0.001l0.081,-0.001l0,0.004l0.076,-0.002l0.077,-0.002l0.078,-0.004l0.077,-0.005l0.078,-0.006l0.079,-0.007l0.079,-0.008l0.078,-0.009l0.079,-0.01l0.079,-0.012l0.079,-0.012l0.08,-0.013l0.079,-0.015l0.078,-0.016l0.079,-0.017l0.079,-0.017l0.078,-0.019l0.078,-0.021l0.078,-0.021l0.077,-0.022l0.077,-0.024l0.076,-0.024l0.076,-0.026l0.075,-0.027l0.074,-0.028l0.074,-0.029l0.073,-0.03l0.072,-0.032l0.072,-0.032l0.07,-0.034l0.07,-0.035l0.069,-0.036l0.138,0.003Zm0.11,1.322l-0.093,0.04l-0.093,0.039l-0.095,0.038l-0.094,0.035l-0.094,0.034l-0.096,0.032l-0.094,0.03l-0.096,0.03l-0.096,0.028l-0.097,0.026l-0.095,0.025l-0.097,0.023l-0.096,0.022l-0.096,0.021l-0.097,0.019l-0.095,0.017l-0.098,0.017l-0.096,0.015l-0.096,0.014l-0.096,0.012l-0.096,0.011l-0.097,0.01l-0.095,0.009l-0.095,0.007l-0.095,0.006l-0.095,0.005l-0.094,0.003l-0.084,0.002l-0.083,-0.001l-0.022,-0.001l-0.095,0l-0.1,-0.002l-0.101,-0.003l-0.1,-0.004l-0.101,-0.006l-0.101,-0.008l-0.1,-0.009l-0.099,-0.011l-0.099,-0.013l-0.1,-0.014l-0.1,-0.016l-0.1,-0.017l-0.099,-0.019l-0.099,-0.021l-0.097,-0.022l-0.1,-0.024l-0.099,-0.026l-0.096,-0.027l-0.098,-0.029l-0.098,-0.031l-0.097,-0.032l-0.096,-0.034l-0.096,-0.036l-0.096,-0.037l-0.094,-0.039l-0.095,-0.04l-0.095,-0.043l-0.043,-0.02l-0.04,0.002l-0.106,0.008l-0.103,0.01l-0.1,0.011l-0.098,0.013l-0.093,0.015l-0.092,0.016l-0.088,0.018l-0.084,0.019l-0.083,0.021l-0.079,0.021l-0.077,0.023l-0.074,0.025l-0.072,0.025l-0.069,0.027l-0.067,0.027l-0.065,0.03l-0.062,0.029l-0.06,0.031l-0.059,0.032l-0.055,0.032l-0.055,0.034l-0.053,0.035l-0.051,0.036l-0.05,0.038l-0.05,0.039l-0.046,0.038l-0.045,0.039l-0.045,0.043l-0.044,0.043l-0.043,0.045l-0.042,0.046l-0.039,0.046l-0.041,0.049l-0.04,0.051l-0.037,0.052l-0.038,0.054l-0.037,0.055l-0.035,0.057l-0.035,0.059l-0.034,0.06l-0.034,0.064l-0.033,0.066l-0.032,0.066l-0.031,0.068l-0.031,0.071l-0.028,0.071l-0.029,0.076l-0.028,0.076l-0.027,0.078l-0.026,0.081l-0.025,0.083l-0.024,0.083l-0.022,0.084l-0.023,0.09l-0.021,0.09l-0.02,0.092l-0.019,0.092l-0.018,0.095l-0.017,0.098l-0.016,0.1l-0.004,0.021l-0.013,0.942l0,0.007l0.003,0.028l0.003,0.022l0.004,0.025l0.004,0.025l0.003,0.017l0.004,0.017l0.005,0.021l0.004,0.014l0.003,0.014l0.005,0.016l0.005,0.016l0.006,0.015l0.003,0.009l0.005,0.013l0.005,0.012l0.003,0.005l0.003,0.006l0.005,0.011l0.007,0.013l0.002,0.004l0.003,0.003l0.008,0.012l0.004,0.007l0.006,0.008l0.001,0.001l0.006,0.007l0.009,0.01l0.004,0.004l0.004,0.005l0.004,0.003l0.005,0.005l0.009,0.008l0.005,0.004l0.006,0.005l0.011,0.008l0.008,0.006l0.007,0.005l0.01,0.007l0.012,0.007l0.009,0.006l0.012,0.006l0.013,0.007l0.011,0.006l0.018,0.009l0.017,0.008l0.014,0.006l0.019,0.008l0.019,0.008l0.018,0.006l0.019,0.007l0.023,0.008l0.025,0.008l0.017,0.005l0.054,0.015l0.055,0.013l0.027,0.006l10.364,0l0.026,-0.006l0.055,-0.013l0.054,-0.015l0.019,-0.006l0.024,-0.007l0.022,-0.008l0.021,-0.007l0.017,-0.006l0.017,-0.007l0.021,-0.009l0.016,-0.007l0.015,-0.007l0.016,-0.008l0.011,-0.006l0.015,-0.008l0.011,-0.006l0.009,-0.006l0.013,-0.007l0.009,-0.007l0.01,-0.007l0.009,-0.006l0.005,-0.004l0.006,-0.005l0.01,-0.008l0.007,-0.006l0.002,-0.002l0.009,-0.009l0.005,-0.005l0.001,-0.001l0.006,-0.007l0.006,-0.006l0.004,-0.005l0.004,-0.006l0.005,-0.006l0.004,-0.007l0.003,-0.004l0.004,-0.007l0.005,-0.008l0.002,-0.005l0.006,-0.01l0.005,-0.011l0.004,-0.01l0.004,-0.007l0.005,-0.013l0.005,-0.014l0.004,-0.01l0.005,-0.016l0.003,-0.012l0.004,-0.013l0.005,-0.019l0.005,-0.021l0.004,-0.022l0.004,-0.017l0.003,-0.02l0.004,-0.025l0.003,-0.022l0.002,-0.024l0.001,-0.012l-0.014,-0.942l-0.003,-0.022l-0.016,-0.098l-0.017,-0.096l-0.018,-0.097l-0.019,-0.092l-0.02,-0.092l-0.021,-0.09l-0.023,-0.088l-0.023,-0.086l-0.024,-0.085l-0.025,-0.083l-0.025,-0.078l-0.027,-0.079l-0.028,-0.078l-0.028,-0.072l-0.03,-0.073l-0.03,-0.071l-0.031,-0.068l-0.033,-0.068l-0.032,-0.064l-0.033,-0.062l-0.035,-0.062l-0.035,-0.059l-0.036,-0.057l-0.036,-0.055l-0.038,-0.054l-0.039,-0.053l-0.038,-0.05l-0.039,-0.048l-0.042,-0.047l-0.041,-0.046l-0.043,-0.045l-0.045,-0.044l-0.043,-0.041l-0.047,-0.04l-0.046,-0.039l-0.049,-0.038l-0.049,-0.037l-0.052,-0.037l-0.054,-0.035l-0.053,-0.033l-0.056,-0.033l-0.059,-0.032l-0.06,-0.031l-0.063,-0.03l-0.064,-0.028l-0.067,-0.028l-0.069,-0.027l-0.072,-0.025l-0.074,-0.025l-0.076,-0.023l-0.08,-0.021l-0.083,-0.021l-0.084,-0.019l-0.089,-0.018l-0.091,-0.016l-0.093,-0.015l-0.098,-0.013l-0.1,-0.011l-0.103,-0.01l-0.106,-0.008l-0.045,-0.002l-0.033,0.015Z" style="fill:#fff;"/><path d="M12.312,0.178l0.113,0.004l0.112,0.007l0.111,0.01l0.11,0.013l0.11,0.015l0.108,0.018l0.108,0.021l0.106,0.023l0.106,0.026l0.105,0.028l0.104,0.031l0.102,0.033l0.102,0.036l0.1,0.038l0.099,0.041l0.098,0.043l0.097,0.045l0.095,0.047l0.094,0.05l0.093,0.052l0.091,0.054l0.09,0.056l0.088,0.058l0.087,0.06l0.085,0.062l0.084,0.065l0.082,0.066l0.081,0.068l0.079,0.07l0.077,0.072l0.075,0.073l0.074,0.076l0.072,0.077l0.07,0.079l0.068,0.08l0.066,0.083l0.064,0.083l0.063,0.086l0.06,0.087l0.058,0.088l0.056,0.09l0.054,0.091l0.052,0.093l0.05,0.094l0.047,0.095l0.045,0.097l0.043,0.098l0.041,0.099l0.038,0.1l0.036,0.102l0.033,0.102l0.031,0.104l0.028,0.105l0.026,0.105l0.023,0.107l0.021,0.108l0.018,0.108l0.015,0.11l0.013,0.11l0.01,0.111l0.007,0.112l0.004,0.113l0.002,0.113l-0.002,0.113l-0.004,0.113l-0.007,0.112l-0.01,0.111l-0.013,0.11l-0.015,0.109l-0.018,0.109l-0.021,0.108l-0.023,0.106l-0.026,0.106l-0.028,0.105l-0.031,0.104l-0.033,0.102l-0.036,0.102l-0.038,0.1l-0.041,0.099l-0.043,0.098l-0.045,0.097l-0.047,0.095l-0.05,0.094l-0.052,0.093l-0.054,0.091l-0.056,0.09l-0.058,0.088l-0.06,0.087l-0.063,0.085l-0.064,0.084l-0.066,0.082l-0.068,0.081l-0.07,0.079l-0.072,0.077l-0.074,0.075l-0.075,0.074l-0.077,0.072l-0.079,0.07l-0.081,0.068l-0.082,0.066l-0.084,0.064l-0.085,0.063l-0.087,0.06l-0.088,0.058l-0.09,0.056l-0.091,0.054l-0.093,0.052l-0.094,0.05l-0.095,0.047l-0.097,0.045l-0.098,0.043l-0.099,0.041l-0.1,0.038l-0.102,0.036l-0.102,0.033l-0.104,0.031l-0.105,0.028l-0.106,0.026l-0.106,0.023l-0.108,0.021l-0.108,0.018l-0.11,0.015l-0.11,0.013l-0.111,0.01l-0.112,0.007l-0.113,0.004l-0.113,0.002l-0.113,-0.002l-0.113,-0.004l-0.112,-0.007l-0.111,-0.01l-0.11,-0.013l-0.11,-0.015l-0.108,-0.018l-0.108,-0.021l-0.107,-0.023l-0.105,-0.026l-0.105,-0.028l-0.104,-0.031l-0.102,-0.033l-0.102,-0.036l-0.1,-0.038l-0.099,-0.041l-0.098,-0.043l-0.097,-0.045l-0.095,-0.047l-0.094,-0.05l-0.093,-0.052l-0.091,-0.054l-0.09,-0.056l-0.088,-0.058l-0.087,-0.06l-0.086,-0.063l-0.083,-0.064l-0.083,-0.066l-0.08,-0.068l-0.079,-0.07l-0.077,-0.072l-0.076,-0.074l-0.073,-0.075l-0.072,-0.077l-0.07,-0.079l-0.068,-0.081l-0.066,-0.082l-0.065,-0.084l-0.062,-0.085l-0.06,-0.087l-0.058,-0.088l-0.056,-0.09l-0.054,-0.091l-0.052,-0.093l-0.05,-0.094l-0.047,-0.095l-0.045,-0.097l-0.043,-0.098l-0.041,-0.099l-0.038,-0.1l-0.036,-0.102l-0.033,-0.102l-0.031,-0.104l-0.028,-0.105l-0.026,-0.106l-0.023,-0.106l-0.021,-0.108l-0.018,-0.109l-0.015,-0.109l-0.013,-0.11l-0.01,-0.111l-0.007,-0.112l-0.004,-0.113l-0.002,-0.113l0.002,-0.113l0.004,-0.113l0.007,-0.112l0.01,-0.111l0.013,-0.11l0.015,-0.11l0.018,-0.108l0.021,-0.108l0.023,-0.107l0.026,-0.105l0.028,-0.105l0.031,-0.104l0.033,-0.102l0.036,-0.102l0.038,-0.1l0.041,-0.099l0.043,-0.098l0.045,-0.097l0.047,-0.095l0.05,-0.094l0.052,-0.093l0.054,-0.091l0.056,-0.09l0.058,-0.088l0.06,-0.087l0.062,-0.086l0.065,-0.083l0.066,-0.083l0.068,-0.08l0.07,-0.079l0.072,-0.077l0.073,-0.076l0.076,-0.073l0.077,-0.072l0.079,-0.07l0.08,-0.068l0.083,-0.066l0.083,-0.065l0.086,-0.062l0.087,-0.06l0.088,-0.058l0.09,-0.056l0.091,-0.054l0.093,-0.052l0.094,-0.05l0.095,-0.047l0.097,-0.045l0.098,-0.043l0.099,-0.041l0.1,-0.038l0.102,-0.036l0.102,-0.033l0.104,-0.031l0.105,-0.028l0.105,-0.026l0.107,-0.023l0.108,-0.021l0.108,-0.018l0.11,-0.015l0.11,-0.013l0.111,-0.01l0.112,-0.007l0.113,-0.004l0.113,-0.002l0.113,0.002Zm-0.194,1.299l-0.079,0.003l-0.078,0.005l-0.08,0.008l-0.078,0.008l-0.076,0.011l-0.076,0.013l-0.076,0.014l-0.076,0.017l-0.074,0.018l-0.072,0.019l-0.073,0.022l-0.072,0.024l-0.072,0.025l-0.07,0.027l-0.069,0.028l-0.068,0.03l-0.069,0.032l-0.068,0.034l-0.065,0.034l-0.066,0.037l-0.064,0.037l-0.063,0.04l-0.063,0.041l-0.06,0.042l-0.061,0.045l-0.059,0.045l-0.057,0.046l-0.058,0.049l-0.057,0.05l-0.052,0.049l-0.053,0.052l-0.054,0.055l-0.05,0.053l-0.049,0.056l-0.049,0.057l-0.046,0.058l-0.046,0.059l-0.044,0.061l-0.041,0.059l-0.041,0.063l-0.041,0.065l-0.038,0.064l-0.036,0.065l-0.035,0.065l-0.033,0.068l-0.032,0.067l-0.03,0.07l-0.028,0.069l-0.027,0.07l-0.026,0.073l-0.023,0.07l-0.022,0.074l-0.019,0.072l-0.018,0.073l-0.017,0.077l-0.014,0.076l-0.013,0.076l-0.011,0.078l-0.009,0.079l-0.007,0.077l-0.005,0.076l-0.002,0.081l-0.002,0.081l0.002,0.08l0.002,0.082l0.005,0.076l0.007,0.077l0.009,0.079l0.011,0.078l0.013,0.076l0.014,0.076l0.017,0.077l0.018,0.073l0.02,0.072l0.021,0.073l0.023,0.07l0.026,0.074l0.027,0.07l0.028,0.069l0.03,0.07l0.031,0.066l0.034,0.068l0.035,0.066l0.037,0.065l0.037,0.064l0.04,0.064l0.042,0.063l0.041,0.06l0.044,0.061l0.046,0.059l0.046,0.057l0.049,0.058l0.048,0.055l0.051,0.054l0.054,0.055l0.052,0.051l0.054,0.05l0.056,0.05l0.057,0.048l0.058,0.047l0.059,0.045l0.061,0.044l0.061,0.043l0.061,0.04l0.064,0.04l0.065,0.039l0.065,0.036l0.065,0.034l0.067,0.033l0.069,0.033l0.069,0.03l0.07,0.029l0.07,0.026l0.069,0.025l0.073,0.023l0.074,0.022l0.073,0.02l0.074,0.018l0.075,0.017l0.076,0.014l0.075,0.013l0.077,0.01l0.079,0.009l0.077,0.007l0.08,0.005l0.079,0.003l0.081,0.001l0.08,-0.001l0.08,-0.003l0.079,-0.005l0.078,-0.007l0.078,-0.009l0.078,-0.01l0.076,-0.013l0.075,-0.014l0.074,-0.016l0.074,-0.019l0.075,-0.02l0.072,-0.021l0.072,-0.024l0.071,-0.025l0.07,-0.026l0.069,-0.029l0.071,-0.031l0.067,-0.031l0.067,-0.033l0.066,-0.035l0.065,-0.037l0.066,-0.038l0.063,-0.04l0.061,-0.04l0.061,-0.043l0.061,-0.044l0.059,-0.045l0.058,-0.047l0.057,-0.048l0.055,-0.049l0.054,-0.051l0.055,-0.053l0.051,-0.052l0.051,-0.055l0.05,-0.056l0.046,-0.055l0.048,-0.059l0.046,-0.059l0.042,-0.059l0.044,-0.063l0.042,-0.064l0.039,-0.062l0.037,-0.064l0.037,-0.065l0.035,-0.066l0.032,-0.066l0.032,-0.068l0.031,-0.07l0.028,-0.069l0.028,-0.072l0.024,-0.069l0.023,-0.073l0.022,-0.073l0.02,-0.072l0.018,-0.076l0.017,-0.074l0.014,-0.076l0.013,-0.076l0.011,-0.078l0.009,-0.076l0.006,-0.077l0.005,-0.081l0.003,-0.08l0.001,-0.08l-0.001,-0.081l-0.003,-0.079l-0.005,-0.081l-0.006,-0.077l-0.009,-0.076l-0.011,-0.078l-0.013,-0.076l-0.014,-0.076l-0.017,-0.074l-0.018,-0.076l-0.019,-0.072l-0.023,-0.074l-0.023,-0.072l-0.024,-0.069l-0.028,-0.072l-0.028,-0.069l-0.031,-0.07l-0.032,-0.069l-0.032,-0.066l-0.035,-0.065l-0.036,-0.065l-0.038,-0.064l-0.039,-0.063l-0.042,-0.063l-0.044,-0.063l-0.042,-0.059l-0.046,-0.059l-0.048,-0.059l-0.045,-0.054l-0.051,-0.058l-0.051,-0.054l-0.051,-0.053l-0.055,-0.053l-0.053,-0.05l-0.056,-0.049l-0.058,-0.049l-0.057,-0.046l-0.059,-0.045l-0.061,-0.045l-0.06,-0.042l-0.063,-0.041l-0.062,-0.039l-0.065,-0.038l-0.066,-0.037l-0.066,-0.035l-0.068,-0.033l-0.067,-0.032l-0.07,-0.03l-0.068,-0.028l-0.069,-0.027l-0.074,-0.026l-0.072,-0.023l-0.071,-0.021l-0.073,-0.02l-0.075,-0.018l-0.075,-0.017l-0.075,-0.014l-0.077,-0.013l-0.077,-0.011l-0.077,-0.008l-0.08,-0.008l-0.078,-0.005l-0.08,-0.003l-0.08,-0.001l-0.081,0.001Z" style="fill:#fff;"/></g><g><path d="M3.852,3.188l0.058,0.002l0.058,0.004l0.058,0.005l0.057,0.007l0.057,0.008l0.057,0.009l0.055,0.011l0.056,0.012l0.055,0.013l0.054,0.015l0.054,0.016l0.053,0.017l0.053,0.019l0.052,0.02l0.052,0.021l0.05,0.022l0.051,0.023l0.049,0.025l0.049,0.026l0.048,0.027l0.047,0.028l0.047,0.029l0.046,0.03l0.045,0.031l0.044,0.033l0.044,0.033l0.043,0.035l0.041,0.035l0.041,0.036l0.041,0.038l0.039,0.038l0.038,0.039l0.037,0.04l0.037,0.041l0.035,0.042l0.034,0.043l0.034,0.043l0.032,0.044l0.031,0.045l0.031,0.046l0.029,0.047l0.028,0.047l0.027,0.049l0.025,0.048l0.025,0.05l0.024,0.05l0.022,0.051l0.021,0.051l0.02,0.053l0.018,0.052l0.018,0.054l0.016,0.053l0.014,0.055l0.014,0.055l0.012,0.055l0.01,0.056l0.01,0.056l0.008,0.057l0.006,0.057l0.005,0.058l0.004,0.058l0.002,0.059l0.001,0.059l-0.001,0.058l-0.002,0.059l-0.004,0.058l-0.005,0.058l-0.006,0.057l-0.008,0.057l-0.01,0.056l-0.01,0.056l-0.012,0.055l-0.014,0.055l-0.014,0.055l-0.016,0.054l-0.018,0.053l-0.018,0.053l-0.02,0.052l-0.021,0.051l-0.022,0.051l-0.024,0.05l-0.025,0.05l-0.025,0.049l-0.027,0.048l-0.028,0.047l-0.029,0.047l-0.031,0.046l-0.031,0.045l-0.032,0.044l-0.034,0.044l-0.034,0.042l-0.035,0.042l-0.037,0.041l-0.037,0.04l-0.038,0.039l-0.039,0.039l-0.041,0.037l-0.041,0.036l-0.041,0.036l-0.043,0.034l-0.044,0.033l-0.044,0.033l-0.045,0.031l-0.046,0.03l-0.047,0.029l-0.047,0.028l-0.048,0.027l-0.049,0.026l-0.049,0.025l-0.051,0.023l-0.05,0.022l-0.052,0.021l-0.052,0.02l-0.053,0.019l-0.053,0.017l-0.054,0.016l-0.054,0.015l-0.055,0.013l-0.056,0.012l-0.055,0.011l-0.057,0.009l-0.057,0.008l-0.057,0.007l-0.058,0.005l-0.058,0.004l-0.058,0.002l-0.059,0.001l-0.059,-0.001l-0.058,-0.002l-0.058,-0.004l-0.058,-0.005l-0.057,-0.007l-0.057,-0.008l-0.057,-0.009l-0.056,-0.011l-0.055,-0.012l-0.055,-0.013l-0.054,-0.015l-0.054,-0.016l-0.053,-0.017l-0.053,-0.019l-0.052,-0.02l-0.052,-0.021l-0.051,-0.022l-0.05,-0.023l-0.049,-0.025l-0.049,-0.026l-0.048,-0.027l-0.048,-0.028l-0.046,-0.029l-0.046,-0.03l-0.045,-0.031l-0.045,-0.033l-0.043,-0.033l-0.043,-0.034l-0.042,-0.036l-0.041,-0.036l-0.04,-0.037l-0.039,-0.039l-0.038,-0.039l-0.037,-0.04l-0.037,-0.041l-0.035,-0.042l-0.034,-0.042l-0.034,-0.044l-0.032,-0.044l-0.031,-0.045l-0.031,-0.046l-0.029,-0.047l-0.028,-0.047l-0.027,-0.048l-0.026,-0.049l-0.024,-0.05l-0.024,-0.05l-0.022,-0.051l-0.021,-0.051l-0.02,-0.052l-0.018,-0.053l-0.018,-0.053l-0.016,-0.054l-0.014,-0.055l-0.014,-0.055l-0.012,-0.055l-0.011,-0.056l-0.009,-0.056l-0.008,-0.057l-0.006,-0.057l-0.006,-0.058l-0.003,-0.058l-0.003,-0.059l0,-0.058l0,-0.059l0.003,-0.059l0.003,-0.058l0.006,-0.058l0.006,-0.057l0.008,-0.057l0.009,-0.056l0.011,-0.056l0.012,-0.055l0.014,-0.055l0.014,-0.055l0.016,-0.053l0.018,-0.054l0.018,-0.052l0.02,-0.053l0.021,-0.051l0.022,-0.051l0.024,-0.05l0.024,-0.05l0.026,-0.048l0.027,-0.049l0.028,-0.047l0.029,-0.047l0.031,-0.046l0.031,-0.045l0.032,-0.044l0.034,-0.043l0.034,-0.043l0.035,-0.042l0.037,-0.041l0.037,-0.04l0.038,-0.039l0.039,-0.038l0.04,-0.038l0.041,-0.036l0.042,-0.035l0.043,-0.035l0.043,-0.033l0.045,-0.033l0.045,-0.031l0.046,-0.03l0.046,-0.029l0.048,-0.028l0.048,-0.027l0.049,-0.026l0.049,-0.025l0.05,-0.023l0.051,-0.022l0.052,-0.021l0.052,-0.02l0.053,-0.019l0.053,-0.017l0.054,-0.016l0.054,-0.015l0.055,-0.013l0.055,-0.012l0.056,-0.011l0.057,-0.009l0.057,-0.008l0.057,-0.007l0.058,-0.005l0.058,-0.004l0.058,-0.002l0.059,-0.001l0.059,0.001Zm-0.085,1.3l-0.025,0.001l-0.027,0.002l-0.024,0.002l-0.024,0.002l-0.024,0.004l-0.025,0.004l-0.024,0.004l-0.022,0.005l-0.026,0.007l-0.025,0.006l-0.019,0.006l-0.021,0.007l-0.024,0.008l-0.023,0.009l-0.021,0.009l-0.022,0.01l-0.024,0.011l-0.02,0.009l-0.019,0.01l-0.021,0.012l-0.022,0.014l-0.02,0.012l-0.017,0.011l-0.021,0.015l-0.021,0.015l-0.018,0.014l-0.019,0.015l-0.018,0.015l-0.015,0.014l-0.018,0.016l-0.018,0.018l-0.019,0.019l-0.016,0.017l-0.014,0.016l-0.016,0.019l-0.016,0.019l-0.013,0.018l-0.013,0.017l-0.012,0.018l-0.015,0.022l-0.014,0.023l-0.012,0.021l-0.009,0.016l-0.012,0.022l-0.012,0.025l-0.009,0.018l-0.008,0.019l-0.011,0.028l-0.009,0.023l-0.008,0.021l-0.006,0.021l-0.007,0.02l-0.006,0.023l-0.006,0.027l-0.005,0.023l-0.005,0.023l-0.004,0.025l-0.003,0.025l-0.003,0.026l-0.002,0.021l-0.002,0.027l-0.001,0.028l0,0.024l0,0.023l0.001,0.028l0.002,0.027l0.002,0.021l0.003,0.026l0.003,0.025l0.004,0.024l0.005,0.024l0.005,0.023l0.006,0.027l0.006,0.023l0.007,0.02l0.006,0.021l0.008,0.021l0.009,0.024l0.011,0.027l0.008,0.019l0.009,0.018l0.013,0.027l0.011,0.02l0.008,0.015l0.013,0.022l0.014,0.023l0.015,0.022l0.012,0.018l0.013,0.017l0.013,0.018l0.016,0.019l0.016,0.02l0.015,0.016l0.015,0.016l0.017,0.018l0.02,0.019l0.018,0.016l0.015,0.014l0.02,0.017l0.017,0.014l0.018,0.013l0.021,0.016l0.019,0.013l0.019,0.012l0.02,0.013l0.022,0.013l0.021,0.012l0.019,0.01l0.022,0.01l0.022,0.011l0.02,0.009l0.023,0.009l0.023,0.009l0.024,0.008l0.021,0.007l0.021,0.006l0.023,0.007l0.024,0.005l0.024,0.006l0.024,0.004l0.025,0.004l0.024,0.004l0.024,0.002l0.026,0.003l0.025,0.001l0.025,0.001l0.026,0.001l0.026,-0.001l0.025,-0.001l0.024,-0.001l0.027,-0.003l0.024,-0.002l0.024,-0.004l0.025,-0.004l0.024,-0.004l0.024,-0.006l0.024,-0.005l0.023,-0.007l0.021,-0.006l0.021,-0.007l0.024,-0.008l0.023,-0.009l0.023,-0.009l0.02,-0.009l0.022,-0.011l0.022,-0.01l0.019,-0.01l0.02,-0.012l0.023,-0.013l0.02,-0.013l0.019,-0.012l0.019,-0.013l0.021,-0.016l0.018,-0.013l0.017,-0.014l0.02,-0.017l0.015,-0.014l0.018,-0.016l0.02,-0.019l0.016,-0.018l0.016,-0.016l0.014,-0.016l0.014,-0.017l0.018,-0.022l0.016,-0.021l0.011,-0.014l0.012,-0.018l0.015,-0.022l0.014,-0.023l0.013,-0.022l0.008,-0.015l0.011,-0.02l0.013,-0.027l0.009,-0.018l0.008,-0.019l0.011,-0.027l0.009,-0.024l0.008,-0.021l0.006,-0.021l0.006,-0.02l0.006,-0.023l0.007,-0.027l0.005,-0.023l0.005,-0.024l0.004,-0.024l0.003,-0.025l0.003,-0.026l0.002,-0.021l0.002,-0.027l0.001,-0.023l0,-0.028l0,-0.029l-0.001,-0.023l-0.002,-0.027l-0.002,-0.021l-0.003,-0.026l-0.003,-0.025l-0.004,-0.025l-0.005,-0.023l-0.005,-0.023l-0.007,-0.027l-0.006,-0.023l-0.006,-0.02l-0.006,-0.021l-0.008,-0.021l-0.009,-0.023l-0.011,-0.028l-0.008,-0.019l-0.009,-0.018l-0.013,-0.025l-0.011,-0.022l-0.009,-0.016l-0.012,-0.021l-0.014,-0.023l-0.015,-0.022l-0.012,-0.018l-0.011,-0.014l-0.016,-0.021l-0.018,-0.022l-0.014,-0.016l-0.013,-0.016l-0.017,-0.017l-0.018,-0.019l-0.018,-0.018l-0.018,-0.016l-0.015,-0.014l-0.018,-0.015l-0.019,-0.015l-0.018,-0.014l-0.021,-0.015l-0.021,-0.015l-0.017,-0.011l-0.02,-0.012l-0.023,-0.014l-0.02,-0.012l-0.019,-0.01l-0.02,-0.009l-0.024,-0.011l-0.022,-0.01l-0.021,-0.009l-0.023,-0.009l-0.024,-0.008l-0.021,-0.007l-0.019,-0.006l-0.025,-0.006l-0.026,-0.007l-0.022,-0.005l-0.024,-0.004l-0.025,-0.004l-0.024,-0.004l-0.024,-0.002l-0.024,-0.002l-0.027,-0.002l-0.025,-0.001l-0.026,0l-0.026,0Z" style="fill:#fff;"/><path d="M3.176,8.962l0.607,0.002l0.318,0.001l0.32,0l0.32,-0.001l0.313,-0.002l0.058,0l0.059,0.003l0.059,0.005l0.06,0.008l0.06,0.009l0.06,0.011l0.061,0.013l0.06,0.015l0.06,0.016l0.061,0.018l0.059,0.02l0.059,0.021l0.059,0.022l0.058,0.023l0.057,0.024l0.056,0.025l0.055,0.026l0.054,0.026l0.052,0.028l0.051,0.027l0.05,0.029l0.048,0.028l0.045,0.029l0.044,0.029l0.042,0.029l0.04,0.028l0.037,0.029l0.035,0.029l0.033,0.028l0.03,0.027l0.026,0.027l0.025,0.026l-0.076,0.05l-0.075,0.05l-0.073,0.05l-0.073,0.05l-0.072,0.051l-0.07,0.052l-0.07,0.051l-0.069,0.053l-0.067,0.052l-0.067,0.053l-0.065,0.054l-0.065,0.054l-0.063,0.054l-0.063,0.055l-0.061,0.055l-0.061,0.056l-0.059,0.056l-0.058,0.056l-0.058,0.057l-0.056,0.057l-0.055,0.058l-0.055,0.058l-0.053,0.059l-0.052,0.058l-0.051,0.06l-0.05,0.06l-0.049,0.06l-0.048,0.061l-0.047,0.061l-0.046,0.061l-0.045,0.062l-0.043,0.063l-0.043,0.062l-0.042,0.064l-0.04,0.063l-0.04,0.064l-0.038,0.065l-0.038,0.065l-0.036,0.065l-0.035,0.066l-0.035,0.066l-0.033,0.067l-0.032,0.067l-0.031,0.068l-0.03,0.068l-0.029,0.068l-0.028,0.069l-0.026,0.07l-0.026,0.069l-0.025,0.071l-0.023,0.07l-0.022,0.071l-0.022,0.072l-0.02,0.072l-0.019,0.072l-0.018,0.073l-0.017,0.073l-0.016,0.074l-0.015,0.074l-0.013,0.075l-0.013,0.075l-0.011,0.076l-0.011,0.076l-0.009,0.076l-2.451,0.02l-0.07,-0.012l-0.068,-0.013l-0.065,-0.015l-0.062,-0.017l-0.06,-0.018l-0.058,-0.021l-0.055,-0.022l-0.053,-0.024l-0.051,-0.025l-0.048,-0.027l-0.046,-0.029l-0.044,-0.03l-0.041,-0.032l-0.04,-0.034l-0.037,-0.035l-0.035,-0.036l-0.034,-0.038l-0.031,-0.04l-0.029,-0.041l-0.027,-0.043l-0.025,-0.043l-0.023,-0.046l-0.022,-0.046l-0.019,-0.048l-0.018,-0.05l-0.016,-0.05l-0.014,-0.052l-0.012,-0.053l-0.011,-0.055l-0.008,-0.055l-0.008,-0.057l-0.005,-0.058l-0.004,-1.209l0.005,-0.071l0.006,-0.069l0.008,-0.068l0.009,-0.067l0.009,-0.066l0.011,-0.064l0.013,-0.063l0.013,-0.062l0.014,-0.061l0.016,-0.059l0.016,-0.058l0.018,-0.057l0.018,-0.056l0.02,-0.055l0.021,-0.053l0.022,-0.052l0.023,-0.052l0.024,-0.05l0.024,-0.048l0.026,-0.048l0.027,-0.047l0.028,-0.045l0.029,-0.045l0.03,-0.043l0.031,-0.043l0.031,-0.041l0.033,-0.04l0.034,-0.039l0.034,-0.039l0.036,-0.037l0.036,-0.036l0.037,-0.035l0.038,-0.035l0.039,-0.033l0.04,-0.032l0.041,-0.031l0.041,-0.031l0.043,-0.029l0.043,-0.029l0.044,-0.028l0.045,-0.026l0.046,-0.026l0.046,-0.025l0.047,-0.025l0.048,-0.023l0.049,-0.022l0.049,-0.022l0.05,-0.021l0.051,-0.02l0.052,-0.019l0.052,-0.019l0.053,-0.017l0.054,-0.017l0.054,-0.016l0.056,-0.016l0.055,-0.014l0.057,-0.014l0.057,-0.013l0.057,-0.013l0.059,-0.012l0.059,-0.011l0.059,-0.01l0.121,-0.019l0.261,0l0.282,0Zm-0.441,1.3l-0.009,0.001l-0.04,0.007l-0.042,0.008l-0.041,0.008l-0.041,0.009l-0.039,0.009l-0.037,0.009l-0.036,0.01l-0.036,0.01l-0.037,0.011l-0.032,0.01l-0.031,0.01l-0.032,0.012l-0.028,0.01l-0.029,0.011l-0.029,0.012l-0.023,0.011l-0.027,0.012l-0.025,0.012l-0.022,0.011l-0.022,0.012l-0.019,0.011l-0.022,0.013l-0.018,0.011l-0.017,0.012l-0.019,0.013l-0.014,0.01l-0.017,0.013l-0.016,0.013l-0.012,0.01l-0.012,0.012l-0.014,0.012l-0.014,0.014l-0.012,0.013l-0.01,0.011l-0.011,0.013l-0.011,0.014l-0.011,0.014l-0.01,0.014l-0.01,0.014l-0.011,0.017l-0.011,0.017l-0.009,0.017l-0.011,0.02l-0.009,0.018l-0.009,0.018l-0.01,0.022l-0.01,0.025l-0.009,0.022l-0.009,0.024l-0.008,0.027l-0.01,0.03l-0.008,0.029l-0.008,0.032l-0.008,0.033l-0.007,0.031l-0.007,0.04l-0.007,0.039l-0.006,0.041l-0.005,0.039l-0.005,0.042l-0.004,0.05l-0.001,0.009l0.003,1.025l1.235,-0.009l0.02,-0.066l0.031,-0.093l0.032,-0.09l0.032,-0.087l0.034,-0.089l0.036,-0.088l0.036,-0.085l0.038,-0.088l0.04,-0.086l0.041,-0.086l0.042,-0.085l0.043,-0.083l0.045,-0.084l0.046,-0.083l0.047,-0.081l0.049,-0.082l0.05,-0.081l0.05,-0.078l0.052,-0.081l0.054,-0.079l0.054,-0.077l0.057,-0.078l0.057,-0.076l0.057,-0.075l0.06,-0.076l0.033,-0.04l-0.22,-0.001l-0.608,-0.002l-0.279,0l-0.158,0Z" style="fill:#fff;"/></g><g><path d="M20.355,3.188l0.059,0.002l0.058,0.004l0.057,0.005l0.058,0.007l0.057,0.008l0.056,0.009l0.056,0.011l0.055,0.012l0.055,0.013l0.055,0.015l0.053,0.016l0.054,0.017l0.052,0.019l0.052,0.02l0.052,0.021l0.051,0.022l0.05,0.023l0.049,0.025l0.049,0.026l0.048,0.027l0.048,0.028l0.046,0.029l0.046,0.03l0.046,0.031l0.044,0.033l0.043,0.033l0.043,0.035l0.042,0.035l0.041,0.036l0.04,0.038l0.039,0.038l0.038,0.039l0.038,0.04l0.036,0.041l0.035,0.042l0.035,0.043l0.033,0.043l0.032,0.044l0.032,0.045l0.03,0.046l0.029,0.047l0.028,0.047l0.027,0.049l0.026,0.048l0.024,0.05l0.024,0.05l0.022,0.051l0.021,0.051l0.02,0.053l0.019,0.052l0.017,0.054l0.016,0.053l0.015,0.055l0.013,0.055l0.012,0.055l0.011,0.056l0.009,0.056l0.008,0.057l0.007,0.057l0.005,0.058l0.004,0.058l0.002,0.059l0.001,0.059l-0.001,0.058l-0.002,0.059l-0.004,0.058l-0.005,0.058l-0.007,0.057l-0.008,0.057l-0.009,0.056l-0.011,0.056l-0.012,0.055l-0.013,0.055l-0.015,0.055l-0.016,0.054l-0.017,0.053l-0.019,0.053l-0.02,0.052l-0.021,0.051l-0.022,0.051l-0.024,0.05l-0.024,0.05l-0.026,0.049l-0.027,0.048l-0.028,0.047l-0.029,0.047l-0.03,0.046l-0.032,0.045l-0.032,0.044l-0.033,0.044l-0.035,0.042l-0.035,0.042l-0.036,0.041l-0.038,0.04l-0.038,0.039l-0.039,0.039l-0.04,0.037l-0.041,0.036l-0.042,0.036l-0.043,0.034l-0.043,0.033l-0.044,0.033l-0.046,0.031l-0.046,0.03l-0.046,0.029l-0.048,0.028l-0.048,0.027l-0.049,0.026l-0.049,0.025l-0.05,0.023l-0.051,0.022l-0.052,0.021l-0.052,0.02l-0.052,0.019l-0.054,0.017l-0.053,0.016l-0.055,0.015l-0.055,0.013l-0.055,0.012l-0.056,0.011l-0.056,0.009l-0.057,0.008l-0.058,0.007l-0.057,0.005l-0.058,0.004l-0.059,0.002l-0.059,0.001l-0.059,-0.001l-0.058,-0.002l-0.058,-0.004l-0.058,-0.005l-0.057,-0.007l-0.057,-0.008l-0.056,-0.009l-0.056,-0.011l-0.056,-0.012l-0.055,-0.013l-0.054,-0.015l-0.054,-0.016l-0.053,-0.017l-0.053,-0.019l-0.052,-0.02l-0.051,-0.021l-0.051,-0.022l-0.05,-0.023l-0.05,-0.025l-0.049,-0.026l-0.048,-0.027l-0.047,-0.028l-0.047,-0.029l-0.046,-0.03l-0.045,-0.031l-0.044,-0.033l-0.044,-0.033l-0.042,-0.034l-0.042,-0.036l-0.041,-0.036l-0.04,-0.037l-0.039,-0.039l-0.039,-0.039l-0.037,-0.04l-0.036,-0.041l-0.036,-0.042l-0.034,-0.042l-0.033,-0.044l-0.033,-0.044l-0.031,-0.045l-0.03,-0.046l-0.029,-0.047l-0.028,-0.047l-0.027,-0.048l-0.026,-0.049l-0.025,-0.05l-0.023,-0.05l-0.023,-0.051l-0.021,-0.051l-0.019,-0.052l-0.019,-0.053l-0.017,-0.053l-0.016,-0.054l-0.015,-0.055l-0.013,-0.055l-0.013,-0.055l-0.01,-0.056l-0.01,-0.056l-0.008,-0.057l-0.006,-0.057l-0.005,-0.058l-0.004,-0.058l-0.002,-0.059l-0.001,-0.058l0.001,-0.059l0.002,-0.059l0.004,-0.058l0.005,-0.058l0.006,-0.057l0.008,-0.057l0.01,-0.056l0.01,-0.056l0.013,-0.055l0.013,-0.055l0.015,-0.055l0.016,-0.053l0.017,-0.054l0.019,-0.052l0.019,-0.053l0.021,-0.051l0.023,-0.051l0.023,-0.05l0.025,-0.05l0.026,-0.048l0.027,-0.049l0.028,-0.047l0.029,-0.047l0.03,-0.046l0.031,-0.045l0.033,-0.044l0.033,-0.043l0.034,-0.043l0.036,-0.042l0.036,-0.041l0.037,-0.04l0.039,-0.039l0.039,-0.038l0.04,-0.038l0.041,-0.036l0.042,-0.035l0.042,-0.035l0.044,-0.033l0.044,-0.033l0.045,-0.031l0.046,-0.03l0.047,-0.029l0.047,-0.028l0.048,-0.027l0.049,-0.026l0.05,-0.025l0.05,-0.023l0.051,-0.022l0.051,-0.021l0.052,-0.02l0.053,-0.019l0.053,-0.017l0.054,-0.016l0.054,-0.015l0.055,-0.013l0.056,-0.012l0.056,-0.011l0.056,-0.009l0.057,-0.008l0.057,-0.007l0.058,-0.005l0.058,-0.004l0.058,-0.002l0.059,-0.001l0.059,0.001Zm-0.085,1.3l-0.025,0.001l-0.027,0.002l-0.024,0.002l-0.023,0.002l-0.025,0.004l-0.024,0.004l-0.024,0.004l-0.024,0.005l-0.023,0.006l-0.025,0.007l-0.022,0.006l-0.02,0.007l-0.023,0.008l-0.026,0.01l-0.019,0.008l-0.022,0.01l-0.024,0.011l-0.02,0.009l-0.019,0.01l-0.02,0.012l-0.021,0.012l-0.022,0.014l-0.019,0.013l-0.019,0.013l-0.018,0.013l-0.02,0.016l-0.019,0.015l-0.016,0.013l-0.02,0.018l-0.018,0.017l-0.016,0.015l-0.018,0.019l-0.014,0.015l-0.016,0.018l-0.017,0.019l-0.012,0.016l-0.016,0.021l-0.016,0.021l-0.012,0.018l-0.013,0.018l-0.011,0.019l-0.012,0.021l-0.014,0.025l-0.011,0.021l-0.009,0.017l-0.01,0.022l-0.011,0.024l-0.007,0.018l-0.009,0.024l-0.009,0.025l-0.007,0.021l-0.007,0.025l-0.007,0.023l-0.004,0.017l-0.006,0.028l-0.004,0.023l-0.004,0.025l-0.004,0.025l-0.002,0.021l-0.003,0.032l-0.002,0.021l0,0.023l-0.001,0.029l0.001,0.028l0,0.023l0.002,0.022l0.003,0.031l0.002,0.021l0.004,0.025l0.004,0.024l0.004,0.024l0.006,0.028l0.004,0.017l0.007,0.023l0.007,0.025l0.007,0.021l0.009,0.025l0.009,0.024l0.007,0.018l0.011,0.024l0.01,0.022l0.009,0.018l0.011,0.021l0.013,0.023l0.013,0.022l0.011,0.019l0.013,0.018l0.012,0.018l0.016,0.021l0.016,0.021l0.012,0.016l0.017,0.02l0.017,0.019l0.013,0.013l0.016,0.018l0.018,0.017l0.018,0.016l0.02,0.018l0.017,0.015l0.018,0.014l0.02,0.015l0.018,0.014l0.017,0.011l0.021,0.014l0.022,0.014l0.021,0.012l0.02,0.012l0.019,0.01l0.022,0.01l0.022,0.011l0.02,0.009l0.021,0.008l0.026,0.01l0.023,0.008l0.02,0.007l0.024,0.007l0.023,0.006l0.021,0.005l0.026,0.006l0.024,0.004l0.024,0.004l0.025,0.004l0.023,0.002l0.026,0.003l0.025,0.001l0.025,0.001l0.026,0.001l0.026,-0.001l0.025,-0.001l0.025,-0.001l0.026,-0.003l0.023,-0.002l0.026,-0.004l0.024,-0.004l0.024,-0.004l0.026,-0.006l0.021,-0.005l0.022,-0.006l0.025,-0.007l0.02,-0.007l0.023,-0.008l0.024,-0.009l0.022,-0.009l0.023,-0.01l0.018,-0.009l0.021,-0.01l0.023,-0.013l0.021,-0.011l0.018,-0.011l0.022,-0.014l0.022,-0.014l0.017,-0.011l0.018,-0.014l0.02,-0.015l0.018,-0.014l0.016,-0.015l0.021,-0.018l0.018,-0.016l0.017,-0.017l0.014,-0.015l0.015,-0.016l0.02,-0.023l0.015,-0.016l0.012,-0.016l0.016,-0.021l0.016,-0.021l0.012,-0.018l0.012,-0.018l0.012,-0.019l0.013,-0.022l0.013,-0.023l0.011,-0.021l0.009,-0.018l0.01,-0.022l0.01,-0.024l0.008,-0.018l0.009,-0.024l0.009,-0.025l0.007,-0.021l0.006,-0.02l0.007,-0.028l0.006,-0.022l0.004,-0.023l0.005,-0.024l0.004,-0.024l0.004,-0.025l0.002,-0.021l0.002,-0.026l0.002,-0.027l0.001,-0.028l0,-0.023l0,-0.024l-0.001,-0.028l-0.002,-0.027l-0.002,-0.026l-0.002,-0.021l-0.004,-0.025l-0.004,-0.025l-0.005,-0.023l-0.004,-0.023l-0.006,-0.022l-0.007,-0.028l-0.006,-0.02l-0.007,-0.021l-0.009,-0.025l-0.009,-0.024l-0.008,-0.018l-0.01,-0.024l-0.01,-0.022l-0.009,-0.017l-0.011,-0.021l-0.014,-0.025l-0.012,-0.021l-0.012,-0.019l-0.012,-0.018l-0.012,-0.018l-0.016,-0.021l-0.016,-0.021l-0.012,-0.016l-0.015,-0.016l-0.018,-0.021l-0.017,-0.018l-0.015,-0.016l-0.016,-0.015l-0.018,-0.017l-0.021,-0.018l-0.015,-0.013l-0.019,-0.015l-0.02,-0.016l-0.018,-0.013l-0.019,-0.013l-0.02,-0.013l-0.022,-0.014l-0.018,-0.011l-0.021,-0.011l-0.023,-0.013l-0.019,-0.009l-0.02,-0.01l-0.025,-0.01l-0.02,-0.009l-0.024,-0.009l-0.023,-0.008l-0.02,-0.007l-0.022,-0.006l-0.025,-0.007l-0.024,-0.006l-0.023,-0.005l-0.024,-0.004l-0.024,-0.004l-0.026,-0.004l-0.023,-0.002l-0.023,-0.002l-0.028,-0.002l-0.025,-0.001l-0.026,0l-0.026,0Z" style="fill:#fff;"/><path d="M21.563,8.962l0.12,0.019l0.06,0.01l0.059,0.011l0.058,0.012l0.058,0.013l0.057,0.013l0.056,0.014l0.056,0.014l0.055,0.016l0.054,0.016l0.054,0.017l0.053,0.017l0.053,0.019l0.051,0.019l0.051,0.02l0.05,0.021l0.05,0.022l0.048,0.022l0.048,0.023l0.048,0.025l0.046,0.025l0.046,0.026l0.044,0.026l0.044,0.028l0.044,0.029l0.042,0.029l0.042,0.031l0.04,0.031l0.04,0.032l0.039,0.033l0.038,0.035l0.037,0.035l0.037,0.036l0.035,0.037l0.035,0.039l0.033,0.039l0.033,0.04l0.032,0.041l0.031,0.043l0.029,0.043l0.029,0.045l0.028,0.045l0.027,0.047l0.026,0.048l0.025,0.048l0.024,0.05l0.023,0.052l0.022,0.052l0.02,0.053l0.02,0.055l0.019,0.056l0.017,0.057l0.017,0.058l0.015,0.059l0.015,0.061l0.013,0.062l0.012,0.063l0.011,0.064l0.01,0.066l0.009,0.067l0.007,0.068l0.006,0.069l0.006,0.071l-0.004,1.209l-0.006,0.058l-0.007,0.057l-0.009,0.055l-0.011,0.055l-0.012,0.053l-0.014,0.052l-0.016,0.05l-0.018,0.05l-0.019,0.048l-0.021,0.046l-0.024,0.046l-0.025,0.043l-0.027,0.043l-0.029,0.041l-0.031,0.04l-0.033,0.038l-0.035,0.036l-0.038,0.035l-0.039,0.034l-0.042,0.032l-0.044,0.03l-0.046,0.029l-0.048,0.027l-0.05,0.025l-0.053,0.024l-0.056,0.022l-0.057,0.021l-0.06,0.018l-0.063,0.017l-0.065,0.015l-0.067,0.013l-0.07,0.012l-2.452,-0.02l-0.009,-0.076l-0.01,-0.076l-0.012,-0.076l-0.012,-0.075l-0.014,-0.075l-0.015,-0.074l-0.016,-0.074l-0.016,-0.073l-0.019,-0.073l-0.019,-0.072l-0.02,-0.072l-0.021,-0.072l-0.023,-0.071l-0.023,-0.07l-0.025,-0.071l-0.025,-0.069l-0.027,-0.07l-0.028,-0.069l-0.029,-0.068l-0.03,-0.068l-0.031,-0.068l-0.032,-0.067l-0.033,-0.067l-0.034,-0.066l-0.035,-0.066l-0.037,-0.065l-0.037,-0.065l-0.039,-0.065l-0.039,-0.064l-0.041,-0.063l-0.041,-0.064l-0.043,-0.062l-0.044,-0.063l-0.045,-0.062l-0.046,-0.061l-0.047,-0.061l-0.047,-0.061l-0.049,-0.06l-0.051,-0.06l-0.051,-0.06l-0.052,-0.058l-0.053,-0.059l-0.054,-0.058l-0.055,-0.058l-0.057,-0.057l-0.057,-0.057l-0.058,-0.056l-0.06,-0.056l-0.06,-0.056l-0.062,-0.055l-0.062,-0.055l-0.064,-0.054l-0.064,-0.054l-0.066,-0.054l-0.066,-0.053l-0.068,-0.052l-0.069,-0.053l-0.069,-0.051l-0.071,-0.052l-0.071,-0.051l-0.073,-0.05l-0.074,-0.05l-0.074,-0.05l-0.076,-0.05l0.024,-0.026l0.027,-0.027l0.03,-0.027l0.032,-0.028l0.035,-0.029l0.037,-0.029l0.04,-0.028l0.042,-0.029l0.044,-0.029l0.046,-0.029l0.048,-0.028l0.049,-0.029l0.051,-0.027l0.052,-0.028l0.054,-0.026l0.055,-0.026l0.056,-0.025l0.057,-0.024l0.058,-0.023l0.059,-0.022l0.059,-0.021l0.06,-0.02l0.06,-0.018l0.06,-0.016l0.061,-0.015l0.06,-0.013l0.061,-0.011l0.06,-0.009l0.059,-0.008l0.06,-0.005l0.058,-0.003l0.058,0l0.314,0.002l0.319,0.001l0.321,0l0.317,-0.001l0.608,-0.002l0.281,0l0.262,0Zm-0.26,1.3l-0.279,0l-0.608,0.002l-0.22,0.001l0.033,0.04l0.059,0.075l0.059,0.078l0.056,0.074l0.055,0.076l0.057,0.081l0.052,0.077l0.052,0.079l0.051,0.08l0.05,0.081l0.049,0.082l0.047,0.081l0.046,0.083l0.045,0.084l0.042,0.083l0.043,0.085l0.041,0.086l0.039,0.086l0.039,0.088l0.036,0.085l0.035,0.088l0.034,0.089l0.033,0.089l0.032,0.09l0.029,0.088l0.022,0.069l1.234,0.009l0.004,-1.025l-0.001,-0.009l-0.004,-0.047l-0.005,-0.045l-0.006,-0.042l-0.005,-0.038l-0.007,-0.039l-0.007,-0.037l-0.008,-0.034l-0.007,-0.033l-0.009,-0.032l-0.009,-0.032l-0.008,-0.027l-0.008,-0.023l-0.01,-0.028l-0.01,-0.025l-0.009,-0.022l-0.008,-0.019l-0.011,-0.021l-0.01,-0.021l-0.009,-0.017l-0.01,-0.017l-0.011,-0.017l-0.01,-0.017l-0.01,-0.014l-0.01,-0.014l-0.011,-0.014l-0.012,-0.014l-0.01,-0.013l-0.01,-0.011l-0.013,-0.013l-0.014,-0.014l-0.013,-0.012l-0.013,-0.012l-0.012,-0.01l-0.013,-0.011l-0.018,-0.013l-0.018,-0.014l-0.018,-0.012l-0.016,-0.011l-0.016,-0.01l-0.022,-0.013l-0.022,-0.013l-0.02,-0.011l-0.023,-0.011l-0.024,-0.012l-0.026,-0.012l-0.026,-0.011l-0.029,-0.012l-0.028,-0.011l-0.027,-0.01l-0.032,-0.012l-0.032,-0.01l-0.033,-0.011l-0.034,-0.01l-0.038,-0.01l-0.037,-0.01l-0.035,-0.009l-0.039,-0.009l-0.042,-0.009l-0.04,-0.008l-0.042,-0.008l-0.04,-0.007l-0.009,-0.001l-0.158,0Z" style="fill:#fff;"/></g></g></svg>