<?xml version="1.0" encoding="UTF-8" standalone="no"?><!DOCTYPE svg PUBLIC "-//W3C//DTD SVG 1.1//EN" "http://www.w3.org/Graphics/SVG/1.1/DTD/svg11.dtd"><svg width="100%" height="100%" viewBox="0 0 871 348" version="1.1" xmlns="http://www.w3.org/2000/svg" xmlns:xlink="http://www.w3.org/1999/xlink" xml:space="preserve" xmlns:serif="http://www.serif.com/" style="fill-rule:evenodd;clip-rule:evenodd;stroke-linecap:round;stroke-linejoin:round;stroke-miterlimit:1.5;"><g><g transform="matrix(0.903822,0,0,0.903822,-4127.37,-979.669)"><text x="4561.47px" y="1199.62px" style="font-family:'Montserrat-SemiBold', 'Montserrat';font-weight:600;font-size:162.536px;fill:#2d4d60;">Scru</text><text x="4937.09px" y="1199.62px" style="font-family:'Montserrat-SemiBold', 'Montserrat';font-weight:600;font-size:162.536px;fill:#fff;">m</text></g><g><path d="M513.647,265.729l-27.155,19.616c-1.729,1.553 -1.81,3.001 0.521,4.292l44.07,14.012c3.186,0.883 4.676,0.089 3.496,-3.343l-14.604,-31.804c-1.167,-2.51 -3.305,-3.385 -6.328,-2.773Z" style="fill:#fff;"/><path d="M360.984,167.552c-24.017,114.786 82.674,248.215 149.119,127.669" style="fill:none;stroke:#fff;stroke-width:9.97px;"/></g><g><path d="M643.721,114.504l-18.128,-15.464c-1.138,-1.201 -1.112,-2.232 0.615,-3.014l32.048,-7.408c2.31,-0.444 3.321,0.204 2.287,2.57l-12.177,21.712c-0.971,1.713 -2.537,2.211 -4.645,1.604Z" style="fill:#fff;"/><path d="M733.692,95.305c-3.717,-90.701 -111.833,-73.919 -90.76,-1.043" style="fill:none;stroke:#fff;stroke-width:6.41px;"/></g><g transform="matrix(0.881619,0.199105,-0.199105,0.881619,-3294.19,-1760.79)"><text x="4561.47px" y="1199.62px" style="font-family:'Montserrat-SemiBold', 'Montserrat';font-weight:600;font-size:162.536px;fill:#2d4d60;">A</text><text x="4682.4px" y="1199.62px" style="font-family:'Montserrat-SemiBold', 'Montserrat';font-weight:600;font-size:162.536px;fill:#fff;">gile</text></g></g></svg>