<?xml version="1.0" encoding="UTF-8" standalone="no"?><!DOCTYPE svg PUBLIC "-//W3C//DTD SVG 1.1//EN" "http://www.w3.org/Graphics/SVG/1.1/DTD/svg11.dtd"><svg width="100%" height="100%" viewBox="0 0 9 5" version="1.1" xmlns="http://www.w3.org/2000/svg" xmlns:xlink="http://www.w3.org/1999/xlink" xml:space="preserve" xmlns:serif="http://www.serif.com/" style="fill-rule:evenodd;clip-rule:evenodd;stroke-linejoin:round;stroke-miterlimit:1.41421;"><path id="bv" d="M5.884,0.113l2.429,0c0.2,0 0.343,0.159 0.347,0.352l0.007,2.466c-0.019,0.497 -0.562,0.709 -0.853,0.37l-0.677,-0.667l-2.019,1.994c-0.276,0.3 -0.682,0.312 -0.935,0.01l-1.541,-1.509l-0.963,0.947c-0.15,0.139 -0.342,0.141 -0.452,0.018l-0.483,-0.488c-0.154,-0.136 -0.156,-0.344 -0.006,-0.482l1.439,-1.474c0.248,-0.24 0.669,-0.231 0.922,0.014l1.554,1.584l1.545,-1.593l-0.676,-0.679c-0.338,-0.307 -0.119,-0.846 0.362,-0.863Z" style="fill:#2d4d60;"/></svg>