<?xml version="1.0" encoding="UTF-8" standalone="no"?><!DOCTYPE svg PUBLIC "-//W3C//DTD SVG 1.1//EN" "http://www.w3.org/Graphics/SVG/1.1/DTD/svg11.dtd"><svg width="100%" height="100%" viewBox="0 0 9 8" version="1.1" xmlns="http://www.w3.org/2000/svg" xmlns:xlink="http://www.w3.org/1999/xlink" xml:space="preserve" xmlns:serif="http://www.serif.com/" style="fill-rule:evenodd;clip-rule:evenodd;stroke-linecap:round;stroke-linejoin:round;stroke-miterlimit:1.5;"><path d="M4.189,1.053c0.03,-0.068 0.096,-0.112 0.17,-0.112c0.074,0 0.141,0.044 0.17,0.112l0.917,2.136l2.315,0.212c0.074,0.007 0.136,0.057 0.159,0.127c0.023,0.07 0.002,0.147 -0.054,0.196l-1.749,1.532l0.514,2.268c0.017,0.072 -0.011,0.147 -0.071,0.19c-0.06,0.043 -0.14,0.047 -0.203,0.009l-1.998,-1.189l-1.998,1.189c-0.063,0.038 -0.143,0.034 -0.203,-0.009c-0.059,-0.043 -0.087,-0.118 -0.071,-0.19l0.514,-2.268l-1.749,-1.532c-0.055,-0.049 -0.077,-0.126 -0.054,-0.196c0.023,-0.07 0.086,-0.12 0.159,-0.127l2.315,-0.212l0.917,-2.136Z" style="fill:#2d4d60;stroke:#2d4d60;stroke-width:0.57px;"/></svg>