<?xml version="1.0" encoding="UTF-8" standalone="no"?><!DOCTYPE svg PUBLIC "-//W3C//DTD SVG 1.1//EN" "http://www.w3.org/Graphics/SVG/1.1/DTD/svg11.dtd"><svg width="100%" height="100%" viewBox="0 0 11 11" version="1.1" xmlns="http://www.w3.org/2000/svg" xmlns:xlink="http://www.w3.org/1999/xlink" xml:space="preserve" xmlns:serif="http://www.serif.com/" style="fill-rule:evenodd;clip-rule:evenodd;stroke-linecap:round;stroke-linejoin:round;stroke-miterlimit:1.5;"><path d="M5.237,1.394c0.036,-0.085 0.119,-0.14 0.211,-0.14c0.092,0 0.175,0.055 0.211,0.14l1.143,2.662l2.885,0.264c0.092,0.008 0.17,0.071 0.198,0.158c0.029,0.088 0.002,0.184 -0.067,0.244l-2.179,1.91l0.64,2.825c0.021,0.09 -0.014,0.183 -0.089,0.237c-0.074,0.054 -0.174,0.059 -0.253,0.012l-2.489,-1.483l-2.489,1.483c-0.079,0.047 -0.179,0.042 -0.253,-0.012c-0.075,-0.054 -0.11,-0.147 -0.089,-0.237l0.64,-2.825l-2.179,-1.91c-0.069,-0.06 -0.095,-0.156 -0.067,-0.244c0.028,-0.087 0.106,-0.15 0.198,-0.158l2.885,-0.264l1.143,-2.662Z" style="fill:none;stroke:#2d4d60;stroke-width:0.71px;"/></svg>