<?xml version="1.0" encoding="UTF-8" standalone="no"?><!DOCTYPE svg PUBLIC "-//W3C//DTD SVG 1.1//EN" "http://www.w3.org/Graphics/SVG/1.1/DTD/svg11.dtd"><svg width="100%" height="100%" viewBox="0 0 38 34" version="1.1" xmlns="http://www.w3.org/2000/svg" xmlns:xlink="http://www.w3.org/1999/xlink" xml:space="preserve" xmlns:serif="http://www.serif.com/" style="fill-rule:evenodd;clip-rule:evenodd;stroke-linejoin:round;stroke-miterlimit:1.41421;"><g id="messages-v2" serif:id="messages v2"><path d="M33.32,0.887l0.101,0.004l0.1,0.006l0.099,0.009l0.099,0.011l0.098,0.014l0.097,0.016l0.096,0.019l0.095,0.02l0.095,0.024l0.093,0.025l0.093,0.027l0.092,0.03l0.091,0.032l0.089,0.034l0.089,0.037l0.087,0.038l0.087,0.04l0.085,0.043l0.084,0.044l0.083,0.046l0.082,0.049l0.08,0.05l0.079,0.052l0.078,0.054l0.076,0.055l0.075,0.058l0.073,0.059l0.072,0.061l0.071,0.062l0.069,0.065l0.067,0.065l0.066,0.068l0.064,0.069l0.063,0.07l0.061,0.072l0.059,0.074l0.057,0.075l0.056,0.076l0.054,0.078l0.052,0.079l0.05,0.08l0.048,0.082l0.047,0.083l0.044,0.084l0.042,0.085l0.041,0.086l0.038,0.088l0.036,0.088l0.034,0.09l0.032,0.091l0.03,0.091l0.028,0.093l0.025,0.094l0.023,0.094l0.021,0.096l0.018,0.096l0.017,0.097l0.013,0.098l0.012,0.098l0.008,0.1l0.007,0.1l0.004,0.1l0.001,0.102l0,19.638l-0.001,0.101l-0.004,0.101l-0.007,0.1l-0.008,0.099l-0.012,0.099l-0.013,0.098l-0.017,0.097l-0.018,0.096l-0.021,0.095l-0.023,0.095l-0.025,0.093l-0.028,0.093l-0.03,0.092l-0.032,0.09l-0.034,0.09l-0.036,0.089l-0.038,0.087l-0.041,0.087l-0.042,0.085l-0.044,0.084l-0.047,0.083l-0.048,0.081l-0.05,0.081l-0.052,0.079l-0.054,0.077l-0.056,0.077l-0.057,0.075l-0.059,0.073l-0.061,0.072l-0.063,0.071l-0.064,0.069l-0.066,0.067l-0.067,0.066l-0.069,0.064l-0.071,0.063l-0.072,0.061l-0.073,0.059l-0.075,0.057l-0.076,0.056l-0.078,0.054l-0.079,0.052l-0.08,0.05l-0.082,0.048l-0.083,0.046l-0.084,0.045l-0.085,0.042l-0.087,0.041l-0.087,0.038l-0.089,0.036l-0.089,0.034l-0.091,0.032l-0.092,0.03l-0.093,0.028l-0.093,0.025l-0.095,0.023l-0.095,0.021l-0.096,0.018l-0.097,0.016l-0.098,0.014l-0.099,0.011l-0.099,0.009l-0.1,0.007l-0.101,0.003l-0.101,0.002l-9.941,0l-11.191,5.314l0.187,-5.314l-8.048,0l-0.101,-0.002l-0.101,-0.003l-0.1,-0.007l-0.099,-0.009l-0.099,-0.011l-0.098,-0.014l-0.097,-0.016l-0.096,-0.018l-0.095,-0.021l-0.095,-0.023l-0.093,-0.025l-0.093,-0.028l-0.092,-0.03l-0.09,-0.032l-0.09,-0.034l-0.089,-0.036l-0.087,-0.038l-0.087,-0.041l-0.085,-0.042l-0.084,-0.045l-0.083,-0.046l-0.081,-0.048l-0.081,-0.05l-0.079,-0.052l-0.077,-0.054l-0.077,-0.056l-0.075,-0.057l-0.073,-0.059l-0.072,-0.061l-0.071,-0.063l-0.069,-0.064l-0.067,-0.066l-0.066,-0.067l-0.064,-0.069l-0.063,-0.071l-0.061,-0.072l-0.059,-0.073l-0.057,-0.075l-0.056,-0.077l-0.054,-0.077l-0.052,-0.079l-0.05,-0.081l-0.048,-0.081l-0.046,-0.083l-0.045,-0.084l-0.042,-0.085l-0.041,-0.087l-0.038,-0.087l-0.036,-0.089l-0.034,-0.09l-0.032,-0.09l-0.03,-0.092l-0.028,-0.093l-0.025,-0.093l-0.023,-0.095l-0.021,-0.095l-0.018,-0.096l-0.016,-0.097l-0.014,-0.098l-0.011,-0.099l-0.009,-0.099l-0.007,-0.1l-0.003,-0.101l-0.002,-0.101l0,-19.638l0.002,-0.102l0.003,-0.1l0.007,-0.1l0.009,-0.1l0.011,-0.098l0.014,-0.098l0.016,-0.097l0.018,-0.096l0.021,-0.096l0.023,-0.094l0.025,-0.094l0.028,-0.093l0.03,-0.091l0.032,-0.091l0.034,-0.09l0.036,-0.088l0.038,-0.088l0.041,-0.086l0.042,-0.085l0.045,-0.084l0.046,-0.083l0.048,-0.082l0.05,-0.08l0.052,-0.079l0.054,-0.078l0.056,-0.076l0.057,-0.075l0.059,-0.074l0.061,-0.072l0.063,-0.07l0.064,-0.069l0.066,-0.068l0.067,-0.065l0.069,-0.065l0.071,-0.062l0.072,-0.061l0.073,-0.059l0.075,-0.058l0.077,-0.055l0.077,-0.054l0.079,-0.052l0.081,-0.05l0.081,-0.049l0.083,-0.046l0.084,-0.044l0.085,-0.043l0.087,-0.04l0.087,-0.038l0.089,-0.037l0.09,-0.034l0.09,-0.032l0.092,-0.03l0.093,-0.027l0.093,-0.025l0.095,-0.024l0.095,-0.02l0.096,-0.019l0.097,-0.016l0.098,-0.014l0.099,-0.011l0.099,-0.009l0.1,-0.006l0.101,-0.004l0.101,-0.001l28.993,0l0.101,0.001Zm-29.08,1.999l-0.065,0.001l-0.05,0.001l-0.049,0.004l-0.05,0.004l-0.046,0.005l-0.048,0.007l-0.049,0.008l-0.047,0.009l-0.047,0.011l-0.044,0.01l-0.046,0.013l-0.046,0.013l-0.043,0.014l-0.046,0.016l-0.044,0.017l-0.041,0.017l-0.043,0.019l-0.044,0.02l-0.04,0.02l-0.041,0.022l-0.043,0.024l-0.04,0.023l-0.038,0.024l-0.038,0.025l-0.038,0.027l-0.039,0.028l-0.037,0.029l-0.037,0.029l-0.034,0.029l-0.034,0.031l-0.035,0.032l-0.034,0.033l-0.032,0.033l-0.033,0.035l-0.03,0.034l-0.029,0.035l-0.03,0.037l-0.029,0.037l-0.027,0.038l-0.026,0.038l-0.026,0.038l-0.025,0.04l-0.023,0.04l-0.023,0.041l-0.022,0.041l-0.021,0.042l-0.019,0.041l-0.019,0.043l-0.018,0.044l-0.016,0.043l-0.016,0.044l-0.014,0.044l-0.014,0.047l-0.012,0.045l-0.011,0.045l-0.01,0.047l-0.009,0.047l-0.008,0.048l-0.007,0.047l-0.006,0.049l-0.004,0.049l-0.003,0.049l-0.002,0.05l-0.001,0.063l0,19.613l0.001,0.064l0.002,0.05l0.003,0.049l0.004,0.048l0.006,0.049l0.007,0.048l0.008,0.047l0.009,0.048l0.01,0.046l0.011,0.046l0.012,0.045l0.014,0.046l0.014,0.043l0.016,0.045l0.016,0.044l0.018,0.044l0.019,0.042l0.02,0.042l0.02,0.042l0.021,0.04l0.024,0.042l0.024,0.04l0.024,0.04l0.026,0.038l0.025,0.037l0.028,0.037l0.029,0.039l0.03,0.037l0.029,0.034l0.031,0.036l0.033,0.035l0.03,0.031l0.033,0.032l0.037,0.034l0.034,0.03l0.034,0.029l0.038,0.031l0.038,0.029l0.035,0.025l0.038,0.027l0.04,0.026l0.04,0.025l0.04,0.024l0.041,0.022l0.041,0.022l0.04,0.02l0.042,0.02l0.045,0.019l0.043,0.018l0.042,0.016l0.044,0.016l0.045,0.014l0.046,0.014l0.044,0.012l0.048,0.011l0.047,0.011l0.045,0.008l0.047,0.008l0.048,0.007l0.048,0.005l0.05,0.005l0.051,0.003l0.048,0.002l0.062,0.001l8.037,0l0.169,0.007l0.168,0.021l0.165,0.036l0.162,0.049l0.157,0.063l0.151,0.075l0.144,0.089l0.136,0.1l0.127,0.111l0.118,0.122l0.106,0.131l0.096,0.139l0.083,0.148l0.07,0.153l0.057,0.159l0.044,0.164l0.03,0.166l0.015,0.168l0.001,0.169l-0.071,2.026l8.218,-3.903l0.135,-0.058l0.14,-0.049l0.143,-0.037l0.145,-0.028l0.147,-0.016l0.147,-0.005l9.931,0l0.062,-0.001l0.048,-0.002l0.051,-0.003l0.05,-0.005l0.049,-0.005l0.047,-0.007l0.047,-0.008l0.045,-0.008l0.047,-0.011l0.048,-0.011l0.044,-0.012l0.046,-0.014l0.045,-0.014l0.043,-0.016l0.043,-0.016l0.044,-0.018l0.044,-0.019l0.042,-0.02l0.041,-0.02l0.041,-0.022l0.04,-0.022l0.039,-0.024l0.041,-0.025l0.04,-0.027l0.038,-0.026l0.035,-0.025l0.037,-0.029l0.039,-0.031l0.035,-0.029l0.034,-0.03l0.036,-0.034l0.032,-0.032l0.031,-0.031l0.033,-0.036l0.031,-0.034l0.029,-0.035l0.031,-0.038l0.029,-0.038l0.026,-0.036l0.027,-0.038l0.025,-0.039l0.024,-0.039l0.024,-0.04l0.024,-0.042l0.021,-0.04l0.02,-0.041l0.02,-0.043l0.019,-0.043l0.018,-0.043l0.016,-0.044l0.016,-0.045l0.014,-0.043l0.013,-0.044l0.013,-0.047l0.012,-0.047l0.009,-0.045l0.01,-0.048l0.007,-0.047l0.007,-0.048l0.006,-0.048l0.004,-0.048l0.003,-0.051l0.002,-0.05l0.001,-0.063l0,-19.613l-0.001,-0.062l-0.002,-0.05l-0.003,-0.051l-0.004,-0.049l-0.006,-0.048l-0.007,-0.047l-0.007,-0.048l-0.009,-0.047l-0.01,-0.046l-0.012,-0.046l-0.012,-0.046l-0.014,-0.046l-0.014,-0.044l-0.016,-0.044l-0.016,-0.043l-0.018,-0.043l-0.019,-0.044l-0.02,-0.042l-0.02,-0.041l-0.022,-0.041l-0.023,-0.041l-0.023,-0.04l-0.025,-0.039l-0.025,-0.039l-0.027,-0.039l-0.027,-0.037l-0.028,-0.037l-0.031,-0.037l-0.029,-0.035l-0.03,-0.033l-0.033,-0.036l-0.033,-0.034l-0.033,-0.032l-0.034,-0.032l-0.034,-0.03l-0.035,-0.03l-0.037,-0.029l-0.037,-0.029l-0.039,-0.028l-0.037,-0.026l-0.039,-0.026l-0.039,-0.024l-0.039,-0.023l-0.042,-0.024l-0.041,-0.021l-0.041,-0.021l-0.044,-0.02l-0.042,-0.019l-0.042,-0.017l-0.045,-0.017l-0.045,-0.016l-0.043,-0.014l-0.046,-0.013l-0.046,-0.013l-0.044,-0.01l-0.046,-0.011l-0.048,-0.009l-0.049,-0.008l-0.048,-0.007l-0.046,-0.005l-0.05,-0.004l-0.049,-0.004l-0.05,-0.001l-0.065,-0.001l-28.965,0Z" style="fill:#fff;"/><path d="M25.787,11.039c0,-0.34 -0.276,-0.616 -0.616,-0.616l-14.821,0c-0.339,0 -0.615,0.276 -0.615,0.616l0,1.231c0,0.339 0.276,0.615 0.615,0.615l14.821,0c0.34,0 0.616,-0.276 0.616,-0.615l0,-1.231Z" style="fill:#fff;"/><path d="M27.71,16.723c0,-0.348 -0.282,-0.63 -0.629,-0.63l-16.717,0c-0.347,0 -0.629,0.282 -0.629,0.63l0,1.258c0,0.348 0.282,0.63 0.629,0.63l16.717,0c0.347,0 0.629,-0.282 0.629,-0.63l0,-1.258Z" style="fill:#fff;"/></g></svg>