<?xml version="1.0" encoding="UTF-8" standalone="no"?><!DOCTYPE svg PUBLIC "-//W3C//DTD SVG 1.1//EN" "http://www.w3.org/Graphics/SVG/1.1/DTD/svg11.dtd"><svg width="100%" height="100%" viewBox="0 0 48 35" version="1.1" xmlns="http://www.w3.org/2000/svg" xmlns:xlink="http://www.w3.org/1999/xlink" xml:space="preserve" xmlns:serif="http://www.serif.com/" style="fill-rule:evenodd;clip-rule:evenodd;stroke-linejoin:round;stroke-miterlimit:1.41421;"><g id="team"><g><g><path d="M23.724,21.946c1.725,0.041 3.716,-0.339 5.291,-1.186c5.969,0.057 8.42,3.409 9.136,8.386l0.032,2.177c-0.143,2.153 -1.408,3.269 -3.498,3.621l-11.059,0l0.098,-12.998Z" style="fill:#fff;"/><path d="M24.14,21.94c-1.726,0.041 -3.38,-0.333 -4.954,-1.18c-5.97,0.057 -8.421,3.409 -9.137,8.386l-0.032,2.177c0.144,2.153 1.408,3.269 3.498,3.621l10.625,0l0,-13.004Z" style="fill:#fff;"/></g><circle cx="24.4" cy="9.634" r="8.766" style="fill:#fff;"/></g><g><circle cx="7.624" cy="11.429" r="4.552" style="fill:#fff;"/><path d="M13.359,19.755c-0.48,-0.552 -1.994,-1.367 -3.217,-1.355c-1.649,0.017 -3.506,-0.002 -4.833,0c-2.596,0.377 -4.408,1.624 -4.604,4.665l0.008,2.412c0.104,1.247 0.748,2.102 2.265,2.324l4.892,-0.038c0.371,-3.265 2.246,-5.916 5.489,-8.008Z" style="fill:#fff;"/></g><g><circle cx="40.559" cy="11.429" r="4.552" style="fill:#fff;"/><path d="M35.036,19.755c0.48,-0.552 1.994,-1.367 3.217,-1.355c1.649,0.017 3.506,-0.002 4.833,0c2.596,0.377 4.408,1.624 4.604,4.665l-0.008,2.412c-0.103,1.247 -0.748,2.102 -2.265,2.324l-4.892,-0.038c-0.371,-3.265 -2.246,-5.916 -5.489,-8.008Z" style="fill:#fff;"/></g></g></svg>