<?xml version="1.0" encoding="UTF-8" standalone="no"?><!DOCTYPE svg PUBLIC "-//W3C//DTD SVG 1.1//EN" "http://www.w3.org/Graphics/SVG/1.1/DTD/svg11.dtd"><svg width="100%" height="100%" viewBox="0 0 37 37" version="1.1" xmlns="http://www.w3.org/2000/svg" xmlns:xlink="http://www.w3.org/1999/xlink" xml:space="preserve" xmlns:serif="http://www.serif.com/" style="fill-rule:evenodd;clip-rule:evenodd;stroke-linecap:round;stroke-linejoin:round;stroke-miterlimit:1.5;"><g><g><path d="M15.915,25.545l-6.202,0l0.094,-10.083l8.66,-5.599l8.754,5.599l-0.093,10.083l-6.108,0l0,-6.11l-5.105,0l0,6.11Z" style="fill:none;stroke:#fff;stroke-width:1.5px;"/><path d="M25.483,9.863l-0.002,4.484" style="fill:none;stroke:#fff;stroke-width:1.5px;stroke-linecap:butt;"/></g><path d="M18.702,0.356l0.234,0.004l0.233,0.008l0.233,0.01l0.232,0.013l0.231,0.017l0.23,0.019l0.23,0.021l0.228,0.025l0.228,0.028l0.227,0.03l0.226,0.033l0.225,0.036l0.224,0.039l0.224,0.041l0.222,0.044l0.221,0.047l0.221,0.049l0.219,0.052l0.218,0.055l0.217,0.058l0.216,0.06l0.216,0.062l0.214,0.065l0.212,0.068l0.212,0.07l0.211,0.073l0.209,0.075l0.208,0.078l0.207,0.08l0.206,0.083l0.204,0.085l0.204,0.087l0.202,0.09l0.2,0.093l0.2,0.094l0.198,0.097l0.196,0.099l0.195,0.102l0.194,0.104l0.193,0.106l0.191,0.108l0.189,0.111l0.189,0.113l0.186,0.115l0.185,0.117l0.184,0.119l0.182,0.122l0.181,0.124l0.179,0.125l0.177,0.128l0.176,0.13l0.174,0.132l0.173,0.134l0.171,0.136l0.169,0.138l0.167,0.14l0.166,0.142l0.164,0.144l0.163,0.145l0.16,0.148l0.159,0.15l0.157,0.151l0.155,0.153l0.153,0.156l0.152,0.157l0.149,0.158l0.148,0.161l0.146,0.162l0.144,0.164l0.142,0.166l0.14,0.168l0.138,0.169l0.136,0.171l0.134,0.172l0.132,0.175l0.129,0.175l0.128,0.178l0.126,0.179l0.124,0.18l0.121,0.182l0.119,0.184l0.118,0.185l0.115,0.187l0.112,0.188l0.111,0.19l0.108,0.191l0.107,0.192l0.103,0.194l0.102,0.195l0.099,0.197l0.097,0.198l0.095,0.199l0.092,0.201l0.09,0.202l0.087,0.203l0.086,0.205l0.082,0.205l0.08,0.207l0.078,0.209l0.075,0.209l0.073,0.21l0.07,0.212l0.068,0.213l0.065,0.214l0.063,0.215l0.06,0.216l0.057,0.217l0.055,0.219l0.052,0.219l0.05,0.22l0.046,0.222l0.044,0.222l0.042,0.223l0.039,0.224l0.035,0.225l0.034,0.226l0.03,0.227l0.027,0.228l0.025,0.229l0.022,0.229l0.019,0.23l0.016,0.232l0.013,0.231l0.011,0.233l0.007,0.233l0.005,0.235l0.001,0.234l-0.001,0.235l-0.005,0.234l-0.007,0.234l-0.011,0.232l-0.013,0.232l-0.016,0.231l-0.019,0.23l-0.022,0.23l-0.025,0.229l-0.027,0.227l-0.03,0.227l-0.034,0.226l-0.035,0.225l-0.039,0.225l-0.042,0.223l-0.044,0.222l-0.046,0.221l-0.05,0.221l-0.052,0.219l-0.055,0.218l-0.057,0.217l-0.06,0.217l-0.063,0.215l-0.065,0.214l-0.068,0.212l-0.07,0.212l-0.073,0.211l-0.075,0.209l-0.078,0.208l-0.08,0.207l-0.082,0.206l-0.086,0.204l-0.087,0.204l-0.09,0.202l-0.092,0.2l-0.095,0.2l-0.097,0.198l-0.099,0.196l-0.102,0.196l-0.103,0.193l-0.107,0.193l-0.108,0.191l-0.111,0.19l-0.112,0.188l-0.115,0.186l-0.118,0.186l-0.119,0.183l-0.121,0.182l-0.124,0.181l-0.126,0.179l-0.128,0.177l-0.129,0.176l-0.132,0.174l-0.134,0.173l-0.136,0.171l-0.138,0.169l-0.14,0.167l-0.142,0.166l-0.144,0.164l-0.146,0.163l-0.148,0.16l-0.149,0.159l-0.152,0.157l-0.153,0.155l-0.155,0.153l-0.157,0.152l-0.159,0.15l-0.16,0.147l-0.163,0.146l-0.164,0.144l-0.166,0.142l-0.167,0.14l-0.169,0.138l-0.171,0.136l-0.173,0.134l-0.174,0.132l-0.176,0.13l-0.177,0.127l-0.179,0.126l-0.181,0.124l-0.182,0.121l-0.184,0.12l-0.185,0.117l-0.186,0.115l-0.189,0.113l-0.189,0.11l-0.191,0.109l-0.193,0.106l-0.194,0.104l-0.195,0.101l-0.196,0.099l-0.198,0.097l-0.2,0.095l-0.2,0.092l-0.202,0.09l-0.204,0.088l-0.204,0.085l-0.206,0.082l-0.207,0.081l-0.208,0.077l-0.209,0.076l-0.211,0.072l-0.212,0.071l-0.212,0.067l-0.214,0.065l-0.216,0.063l-0.216,0.06l-0.217,0.057l-0.218,0.055l-0.219,0.052l-0.221,0.05l-0.221,0.047l-0.222,0.044l-0.224,0.041l-0.224,0.039l-0.225,0.036l-0.226,0.033l-0.227,0.03l-0.228,0.027l-0.228,0.025l-0.23,0.022l-0.23,0.019l-0.231,0.016l-0.232,0.013l-0.233,0.011l-0.233,0.007l-0.234,0.005l-0.235,0.001l-0.235,-0.001l-0.234,-0.005l-0.233,-0.007l-0.233,-0.011l-0.232,-0.013l-0.231,-0.016l-0.23,-0.019l-0.229,-0.022l-0.229,-0.025l-0.228,-0.027l-0.227,-0.03l-0.226,-0.033l-0.225,-0.036l-0.224,-0.039l-0.223,-0.041l-0.223,-0.044l-0.221,-0.047l-0.22,-0.05l-0.219,-0.052l-0.219,-0.055l-0.217,-0.057l-0.216,-0.06l-0.215,-0.063l-0.214,-0.065l-0.213,-0.067l-0.212,-0.071l-0.21,-0.072l-0.21,-0.076l-0.208,-0.077l-0.207,-0.081l-0.206,-0.082l-0.204,-0.085l-0.203,-0.088l-0.202,-0.09l-0.201,-0.092l-0.199,-0.095l-0.198,-0.097l-0.197,-0.099l-0.195,-0.101l-0.194,-0.104l-0.192,-0.106l-0.191,-0.109l-0.19,-0.11l-0.188,-0.113l-0.187,-0.115l-0.185,-0.117l-0.184,-0.12l-0.182,-0.121l-0.18,-0.124l-0.179,-0.126l-0.178,-0.127l-0.176,-0.13l-0.174,-0.132l-0.172,-0.134l-0.171,-0.136l-0.169,-0.138l-0.168,-0.14l-0.166,-0.142l-0.164,-0.144l-0.162,-0.146l-0.161,-0.147l-0.159,-0.15l-0.157,-0.152l-0.155,-0.153l-0.153,-0.155l-0.151,-0.157l-0.15,-0.159l-0.148,-0.16l-0.146,-0.163l-0.143,-0.164l-0.142,-0.166l-0.14,-0.167l-0.138,-0.169l-0.136,-0.171l-0.134,-0.173l-0.132,-0.174l-0.13,-0.176l-0.128,-0.177l-0.126,-0.179l-0.123,-0.181l-0.122,-0.182l-0.119,-0.183l-0.117,-0.186l-0.115,-0.186l-0.113,-0.188l-0.111,-0.19l-0.108,-0.191l-0.106,-0.193l-0.104,-0.193l-0.102,-0.196l-0.099,-0.196l-0.097,-0.198l-0.094,-0.2l-0.093,-0.2l-0.09,-0.202l-0.087,-0.204l-0.085,-0.204l-0.083,-0.206l-0.08,-0.207l-0.078,-0.208l-0.075,-0.209l-0.073,-0.211l-0.07,-0.212l-0.068,-0.212l-0.065,-0.214l-0.063,-0.215l-0.06,-0.217l-0.057,-0.217l-0.055,-0.218l-0.052,-0.219l-0.049,-0.221l-0.047,-0.221l-0.044,-0.222l-0.042,-0.223l-0.038,-0.225l-0.036,-0.225l-0.033,-0.226l-0.03,-0.227l-0.028,-0.227l-0.025,-0.229l-0.022,-0.23l-0.019,-0.23l-0.016,-0.231l-0.013,-0.232l-0.01,-0.232l-0.008,-0.234l-0.004,-0.234l-0.002,-0.235l0.002,-0.234l0.004,-0.235l0.008,-0.233l0.01,-0.233l0.013,-0.231l0.016,-0.232l0.019,-0.23l0.022,-0.229l0.025,-0.229l0.028,-0.228l0.03,-0.227l0.033,-0.226l0.036,-0.225l0.038,-0.224l0.042,-0.223l0.044,-0.222l0.047,-0.222l0.049,-0.22l0.052,-0.219l0.055,-0.219l0.057,-0.217l0.06,-0.216l0.063,-0.215l0.065,-0.214l0.068,-0.213l0.07,-0.212l0.073,-0.21l0.075,-0.209l0.078,-0.209l0.08,-0.207l0.083,-0.205l0.085,-0.205l0.087,-0.203l0.09,-0.202l0.093,-0.201l0.094,-0.199l0.097,-0.198l0.099,-0.197l0.102,-0.195l0.104,-0.194l0.106,-0.192l0.108,-0.191l0.111,-0.19l0.113,-0.188l0.115,-0.187l0.117,-0.185l0.119,-0.184l0.122,-0.182l0.123,-0.18l0.126,-0.179l0.128,-0.178l0.13,-0.175l0.132,-0.175l0.134,-0.172l0.136,-0.171l0.138,-0.169l0.14,-0.168l0.142,-0.166l0.143,-0.164l0.146,-0.162l0.148,-0.161l0.15,-0.158l0.151,-0.157l0.153,-0.156l0.155,-0.153l0.157,-0.151l0.159,-0.15l0.161,-0.148l0.162,-0.145l0.164,-0.144l0.166,-0.142l0.168,-0.14l0.169,-0.138l0.171,-0.136l0.172,-0.134l0.174,-0.132l0.176,-0.13l0.178,-0.128l0.179,-0.125l0.18,-0.124l0.182,-0.122l0.184,-0.119l0.185,-0.117l0.187,-0.115l0.188,-0.113l0.19,-0.111l0.191,-0.108l0.192,-0.106l0.194,-0.104l0.195,-0.102l0.197,-0.099l0.198,-0.097l0.199,-0.094l0.201,-0.093l0.202,-0.09l0.203,-0.087l0.204,-0.085l0.206,-0.083l0.207,-0.08l0.208,-0.078l0.21,-0.075l0.21,-0.073l0.212,-0.07l0.213,-0.068l0.214,-0.065l0.215,-0.062l0.216,-0.06l0.217,-0.058l0.219,-0.055l0.219,-0.052l0.22,-0.049l0.221,-0.047l0.223,-0.044l0.223,-0.041l0.224,-0.039l0.225,-0.036l0.226,-0.033l0.227,-0.03l0.228,-0.028l0.229,-0.025l0.229,-0.021l0.23,-0.019l0.231,-0.017l0.232,-0.013l0.233,-0.01l0.233,-0.008l0.234,-0.004l0.235,-0.002l0.235,0.002Zm-0.45,1.5l-0.215,0.004l-0.215,0.007l-0.214,0.009l-0.213,0.012l-0.211,0.015l-0.212,0.018l-0.211,0.02l-0.209,0.022l-0.21,0.026l-0.208,0.028l-0.207,0.03l-0.206,0.033l-0.206,0.035l-0.205,0.038l-0.203,0.041l-0.203,0.042l-0.202,0.046l-0.202,0.048l-0.2,0.05l-0.199,0.052l-0.198,0.055l-0.197,0.058l-0.196,0.06l-0.195,0.062l-0.195,0.064l-0.192,0.067l-0.192,0.069l-0.191,0.071l-0.19,0.074l-0.189,0.075l-0.187,0.078l-0.187,0.081l-0.185,0.082l-0.184,0.085l-0.182,0.086l-0.182,0.089l-0.181,0.092l-0.179,0.093l-0.177,0.095l-0.177,0.097l-0.176,0.1l-0.173,0.101l-0.173,0.104l-0.171,0.105l-0.17,0.108l-0.169,0.109l-0.167,0.112l-0.166,0.113l-0.164,0.115l-0.163,0.118l-0.161,0.119l-0.16,0.121l-0.158,0.123l-0.157,0.125l-0.155,0.127l-0.154,0.128l-0.153,0.131l-0.15,0.132l-0.149,0.133l-0.148,0.136l-0.145,0.137l-0.145,0.139l-0.142,0.141l-0.141,0.142l-0.139,0.145l-0.137,0.146l-0.136,0.147l-0.134,0.149l-0.132,0.15l-0.13,0.153l-0.129,0.154l-0.126,0.155l-0.125,0.157l-0.123,0.158l-0.121,0.16l-0.119,0.161l-0.118,0.163l-0.115,0.164l-0.113,0.166l-0.112,0.167l-0.109,0.169l-0.108,0.17l-0.106,0.171l-0.103,0.173l-0.102,0.174l-0.099,0.175l-0.097,0.176l-0.096,0.178l-0.093,0.179l-0.091,0.181l-0.089,0.181l-0.086,0.183l-0.085,0.184l-0.083,0.185l-0.08,0.187l-0.078,0.187l-0.076,0.189l-0.073,0.19l-0.071,0.191l-0.069,0.191l-0.067,0.194l-0.064,0.194l-0.063,0.195l-0.059,0.196l-0.058,0.197l-0.055,0.198l-0.052,0.199l-0.051,0.201l-0.047,0.201l-0.046,0.202l-0.043,0.203l-0.04,0.203l-0.038,0.205l-0.035,0.206l-0.033,0.206l-0.031,0.208l-0.027,0.208l-0.026,0.209l-0.022,0.209l-0.02,0.211l-0.018,0.211l-0.015,0.212l-0.012,0.213l-0.009,0.214l-0.007,0.214l-0.004,0.216l-0.002,0.215l0.002,0.216l0.004,0.215l0.007,0.215l0.009,0.213l0.012,0.213l0.015,0.212l0.018,0.212l0.02,0.21l0.022,0.21l0.026,0.209l0.027,0.208l0.031,0.207l0.033,0.207l0.035,0.206l0.038,0.204l0.04,0.204l0.043,0.203l0.046,0.202l0.047,0.201l0.051,0.2l0.052,0.199l0.055,0.198l0.058,0.198l0.059,0.196l0.063,0.195l0.064,0.194l0.067,0.193l0.069,0.192l0.071,0.191l0.073,0.19l0.076,0.188l0.078,0.188l0.08,0.186l0.083,0.185l0.085,0.184l0.086,0.183l0.089,0.182l0.091,0.18l0.093,0.179l0.096,0.178l0.097,0.177l0.099,0.175l0.102,0.174l0.103,0.173l0.106,0.171l0.108,0.17l0.109,0.168l0.112,0.167l0.113,0.166l0.115,0.164l0.118,0.163l0.119,0.162l0.121,0.159l0.123,0.159l0.125,0.157l0.127,0.155l0.128,0.154l0.13,0.152l0.132,0.151l0.134,0.149l0.136,0.147l0.137,0.146l0.139,0.144l0.141,0.142l0.143,0.141l0.144,0.139l0.145,0.138l0.148,0.135l0.149,0.134l0.15,0.132l0.153,0.13l0.153,0.129l0.156,0.126l0.157,0.125l0.158,0.124l0.16,0.121l0.161,0.119l0.163,0.117l0.164,0.115l0.166,0.114l0.167,0.111l0.169,0.11l0.17,0.108l0.171,0.105l0.172,0.103l0.174,0.102l0.176,0.099l0.176,0.098l0.178,0.095l0.179,0.093l0.181,0.091l0.181,0.089l0.183,0.087l0.184,0.085l0.185,0.082l0.187,0.08l0.187,0.078l0.189,0.076l0.19,0.074l0.19,0.071l0.193,0.069l0.193,0.067l0.194,0.064l0.195,0.062l0.196,0.06l0.197,0.057l0.199,0.055l0.199,0.053l0.199,0.05l0.202,0.048l0.202,0.045l0.202,0.043l0.204,0.04l0.205,0.038l0.206,0.036l0.206,0.033l0.208,0.03l0.207,0.028l0.21,0.025l0.209,0.023l0.211,0.02l0.211,0.017l0.213,0.015l0.213,0.012l0.213,0.01l0.214,0.007l0.215,0.004l0.216,0.001l0.216,-0.001l0.215,-0.004l0.214,-0.007l0.214,-0.01l0.213,-0.012l0.212,-0.015l0.212,-0.017l0.21,-0.02l0.21,-0.023l0.209,-0.025l0.208,-0.028l0.207,-0.03l0.207,-0.033l0.205,-0.036l0.205,-0.038l0.204,-0.04l0.203,-0.043l0.202,-0.045l0.201,-0.048l0.2,-0.05l0.199,-0.053l0.199,-0.055l0.197,-0.057l0.195,-0.06l0.196,-0.062l0.194,-0.064l0.193,-0.067l0.192,-0.069l0.191,-0.071l0.189,-0.074l0.189,-0.076l0.188,-0.078l0.186,-0.08l0.185,-0.082l0.184,-0.085l0.183,-0.087l0.181,-0.089l0.181,-0.091l0.179,-0.093l0.178,-0.095l0.177,-0.098l0.175,-0.099l0.174,-0.102l0.173,-0.103l0.171,-0.105l0.17,-0.108l0.168,-0.11l0.167,-0.111l0.166,-0.114l0.164,-0.115l0.163,-0.117l0.161,-0.119l0.16,-0.122l0.159,-0.123l0.157,-0.124l0.155,-0.127l0.154,-0.129l0.152,-0.13l0.151,-0.132l0.149,-0.134l0.147,-0.135l0.146,-0.138l0.144,-0.139l0.142,-0.141l0.141,-0.142l0.139,-0.144l0.137,-0.146l0.136,-0.148l0.134,-0.148l0.132,-0.151l0.13,-0.152l0.129,-0.154l0.126,-0.155l0.125,-0.157l0.123,-0.159l0.121,-0.159l0.12,-0.162l0.117,-0.163l0.115,-0.164l0.114,-0.166l0.111,-0.167l0.11,-0.168l0.107,-0.17l0.106,-0.171l0.103,-0.173l0.102,-0.174l0.099,-0.175l0.098,-0.177l0.095,-0.178l0.093,-0.179l0.091,-0.18l0.089,-0.182l0.087,-0.183l0.084,-0.184l0.083,-0.185l0.08,-0.186l0.078,-0.188l0.076,-0.188l0.073,-0.19l0.072,-0.191l0.069,-0.192l0.066,-0.193l0.065,-0.194l0.062,-0.195l0.06,-0.196l0.057,-0.198l0.055,-0.198l0.053,-0.199l0.05,-0.2l0.048,-0.201l0.045,-0.202l0.043,-0.203l0.04,-0.204l0.038,-0.204l0.036,-0.206l0.033,-0.207l0.03,-0.207l0.028,-0.208l0.025,-0.209l0.023,-0.21l0.02,-0.211l0.017,-0.211l0.015,-0.212l0.012,-0.213l0.01,-0.213l0.007,-0.215l0.004,-0.215l0.001,-0.216l-0.001,-0.215l-0.004,-0.216l-0.007,-0.214l-0.01,-0.214l-0.012,-0.213l-0.015,-0.212l-0.017,-0.211l-0.02,-0.211l-0.023,-0.209l-0.025,-0.209l-0.028,-0.208l-0.03,-0.208l-0.033,-0.206l-0.036,-0.206l-0.038,-0.205l-0.04,-0.203l-0.043,-0.203l-0.045,-0.202l-0.048,-0.201l-0.05,-0.201l-0.053,-0.199l-0.055,-0.198l-0.057,-0.197l-0.06,-0.196l-0.062,-0.195l-0.065,-0.194l-0.066,-0.193l-0.069,-0.192l-0.072,-0.191l-0.073,-0.19l-0.076,-0.189l-0.078,-0.187l-0.08,-0.187l-0.083,-0.185l-0.084,-0.184l-0.087,-0.182l-0.089,-0.182l-0.091,-0.181l-0.093,-0.179l-0.095,-0.178l-0.098,-0.176l-0.099,-0.175l-0.102,-0.174l-0.103,-0.173l-0.106,-0.171l-0.107,-0.17l-0.11,-0.169l-0.111,-0.167l-0.114,-0.165l-0.115,-0.165l-0.117,-0.163l-0.12,-0.161l-0.121,-0.16l-0.123,-0.158l-0.124,-0.157l-0.127,-0.155l-0.129,-0.154l-0.13,-0.153l-0.132,-0.15l-0.134,-0.149l-0.135,-0.147l-0.138,-0.146l-0.139,-0.145l-0.141,-0.142l-0.142,-0.14l-0.144,-0.14l-0.146,-0.137l-0.147,-0.136l-0.149,-0.133l-0.151,-0.132l-0.152,-0.131l-0.154,-0.128l-0.156,-0.127l-0.156,-0.125l-0.159,-0.123l-0.159,-0.121l-0.162,-0.119l-0.163,-0.118l-0.164,-0.115l-0.166,-0.113l-0.167,-0.112l-0.168,-0.109l-0.17,-0.108l-0.171,-0.105l-0.173,-0.104l-0.174,-0.101l-0.175,-0.1l-0.177,-0.097l-0.178,-0.095l-0.179,-0.094l-0.18,-0.091l-0.182,-0.089l-0.183,-0.086l-0.184,-0.085l-0.185,-0.082l-0.186,-0.081l-0.188,-0.078l-0.188,-0.075l-0.19,-0.074l-0.191,-0.071l-0.192,-0.069l-0.193,-0.067l-0.194,-0.064l-0.196,-0.062l-0.196,-0.06l-0.197,-0.058l-0.198,-0.055l-0.199,-0.052l-0.2,-0.05l-0.201,-0.048l-0.203,-0.046l-0.202,-0.042l-0.204,-0.041l-0.205,-0.038l-0.205,-0.035l-0.207,-0.033l-0.207,-0.03l-0.208,-0.028l-0.209,-0.026l-0.21,-0.022l-0.211,-0.02l-0.211,-0.018l-0.212,-0.015l-0.213,-0.012l-0.214,-0.009l-0.214,-0.007l-0.215,-0.004l-0.216,-0.002l-0.215,0.002Z" style="fill:#fff;"/></g></svg>